<svg xmlns="http://www.w3.org/2000/svg" xmlns:xlink="http://www.w3.org/1999/xlink" viewBox="-3677 -7089 15 14">
  <defs>
    <style>
      .cls-1 {
        fill: none;
      }

      .cls-2 {
        clip-path: url(#clip-path);
      }

      .cls-3 {
        fill-rule: evenodd;
      }
    </style>
    <clipPath id="clip-path">
      <path id="Path_4553" data-name="Path 4553" class="cls-1" d="M0-252.562H15v14H0Z" transform="translate(0 252.562)"/>
    </clipPath>
  </defs>
  <g id="Group_4884" data-name="Group 4884" transform="translate(-3677 -7087)">
    <g id="Group_4883" data-name="Group 4883" class="cls-2" transform="translate(0 -2)">
      <g id="Group_4882" data-name="Group 4882" transform="translate(0 0)">
        <path id="Path_4552" data-name="Path 4552" class="cls-3" d="M-238.6-76.74a7.571,7.571,0,0,0-.195-1,3.025,3.025,0,0,0-2.6-2.191,2.933,2.933,0,0,0-2.882,1.275.723.723,0,0,1-1.255-.011,2.94,2.94,0,0,0-3.149-1.219,3.147,3.147,0,0,0-2.448,2.688,3.351,3.351,0,0,0,.9,2.687c.917,1.075,1.823,2.16,2.735,3.238.711.841,1.42,1.683,2.14,2.515a.587.587,0,0,0,.947,0c.106-.114.21-.23.311-.349q2.361-2.8,4.72-5.6a3.255,3.255,0,0,0,.779-2.037m1.179.053a4.449,4.449,0,0,1-1.153,2.943q-2.4,2.857-4.817,5.7a1.847,1.847,0,0,1-3.049,0q-2.4-2.838-4.805-5.672a4.478,4.478,0,0,1-1.133-3.606,4.227,4.227,0,0,1,2.643-3.532,4.175,4.175,0,0,1,4.658.79.24.24,0,0,0,.39-.005,4.319,4.319,0,0,1,5.894.017,4.321,4.321,0,0,1,1.371,3.371" transform="translate(252.415 81.244)"/>
      </g>
    </g>
  </g>
</svg>
