<svg xmlns="http://www.w3.org/2000/svg" xmlns:xlink="http://www.w3.org/1999/xlink" viewBox="-1054 -21.481 10 12">
  <defs>
    <style>
      .cls-1 {
        fill: none;
      }

      .cls-2 {
        clip-path: url(#clip-path);
      }

      .cls-3 {
        fill-rule: evenodd;
      }
    </style>
    <clipPath id="clip-path">
      <path id="Path_4706" data-name="Path 4706" class="cls-1" d="M0-474.566H10v12H0Z" transform="translate(0 474.566)"/>
    </clipPath>
  </defs>
  <g id="Group_5422" data-name="Group 5422" transform="translate(-1054 -21.481)">
    <g id="Group_5329" data-name="Group 5329" class="cls-2">
      <g id="Group_5328" data-name="Group 5328" transform="translate(0 0)">
        <path id="Path_4705" data-name="Path 4705" class="cls-3" d="M-174.42-55.746h1.117a.571.571,0,0,0-.278-.59.574.574,0,0,0-.64.047.524.524,0,0,0-.2.542m-.341,8.866a.875.875,0,0,0,.415.766.847.847,0,0,0,.982-.017.869.869,0,0,0,.393-.749Zm.894-.791h3.7a.493.493,0,0,0,.469-.273.52.52,0,0,0-.486-.768H-177.6a.511.511,0,0,0-.5.548.507.507,0,0,0,.55.492h3.676M-177.2-49.5h6.65c0-.028.005-.048.005-.069-.005-.792.015-1.585-.023-2.375A3.075,3.075,0,0,0-171.68-54.2a3.334,3.334,0,0,0-2.951-.709,3.236,3.236,0,0,0-2.566,3.156c0,.535,0,1.07,0,1.605,0,.21,0,.42,0,.638m1.655,2.617c-.638,0-1.267,0-1.9,0a2.456,2.456,0,0,1-.408-.029,1.294,1.294,0,0,1-1.012-1.123,1.293,1.293,0,0,1,.75-1.33l.141-.061v-.14q0-1.068,0-2.136a4.031,4.031,0,0,1,2.6-3.782.868.868,0,0,1,.1-.039c.067-.016.076-.052.068-.119a1.358,1.358,0,0,1,1.108-1.524,1.358,1.358,0,0,1,1.558,1.5c-.013.1.021.128.1.159a3.968,3.968,0,0,1,2.63,3.292,4,4,0,0,1,.036.6c0,.683,0,1.365,0,2.048v.137a1.278,1.278,0,0,1,.88,1.041,1.289,1.289,0,0,1-1.189,1.5c-.654.016-1.308.005-1.963.006h-.158a1.714,1.714,0,0,1-.7,1.377,1.624,1.624,0,0,1-1.113.314,1.7,1.7,0,0,1-1.537-1.691" transform="translate(178.865 57.193)"/>
      </g>
    </g>
  </g>
</svg>
