<svg xmlns="http://www.w3.org/2000/svg" xmlns:xlink="http://www.w3.org/1999/xlink" viewBox="-1143 -22 12.359 12.255">
  <defs>
    <style>
      .cls-1 {
        fill: none;
      }

      .cls-2 {
        clip-path: url(#clip-path);
      }

      .cls-3 {
        fill-rule: evenodd;
      }
    </style>
    <clipPath id="clip-path">
      <path id="Path_4709" data-name="Path 4709" class="cls-1" d="M0-320.823H12.359v12.255H0Z" transform="translate(0 320.823)"/>
    </clipPath>
  </defs>
  <g id="Group_5330" data-name="Group 5330" transform="translate(-1143 -22)">
    <g id="Group_5331" data-name="Group 5331" class="cls-2">
      <g id="Group_5330-2" data-name="Group 5330" transform="translate(0 0)">
        <path id="Path_4708" data-name="Path 4708" class="cls-3" d="M-102.99-279.353c0-.094,0-.17,0-.246,0-.643-.008-1.286,0-1.929a2.146,2.146,0,0,1,2.812-1.957,2.126,2.126,0,0,1,1.508,2.129c0,.6,0,1.2,0,1.8,0,.15.038.217.2.216q1.213-.01,2.425,0c.15,0,.2-.045.2-.2,0-1.783,0-3.565-.008-5.347a.317.317,0,0,0-.106-.217q-2.382-1.911-4.77-3.814a.205.205,0,0,0-.309-.007q-2.36,1.892-4.729,3.774a.4.4,0,0,0-.169.352c.005,1.751,0,3.5,0,5.252,0,.062.006.124.009.2Zm8.247,1.16h-4.829c-.252,0-.252,0-.252-.246,0-.98,0-1.961,0-2.941a1.02,1.02,0,0,0-1.352-1.01,1.018,1.018,0,0,0-.7,1.009c0,.974,0,1.948,0,2.922,0,.255,0,.256-.246.256-1.572,0-3.145,0-4.717,0-.181,0-.24-.047-.239-.234q.009-3.476,0-6.952a.348.348,0,0,1,.147-.3q2.927-2.329,5.846-4.669a.264.264,0,0,1,.4.008q2.922,2.351,5.851,4.693a.3.3,0,0,1,.108.2q.007,3.609,0,7.219a.271.271,0,0,1-.021.047" transform="translate(107.08 290.447)"/>
      </g>
    </g>
  </g>
</svg>
