<svg xmlns="http://www.w3.org/2000/svg" xmlns:xlink="http://www.w3.org/1999/xlink" viewBox="-3526 -7089 16 13">
  <defs>
    <style>
      .cls-1 {
        fill: rgba(0,0,0,0);
      }

      .cls-2 {
        clip-path: url(#clip-path);
      }

      .cls-3 {
        fill-rule: evenodd;
      }
    </style>
    <clipPath id="clip-path">
      <path id="Path_4551" data-name="Path 4551" class="cls-1" d="M0-156.349H16v13H0Z" transform="translate(0 156.349)"/>
    </clipPath>
  </defs>
  <g id="Group_4881" data-name="Group 4881" transform="translate(-3526 -7089)">
    <g id="Group_4880" data-name="Group 4880" class="cls-2">
      <g id="Group_4879" data-name="Group 4879" transform="translate(0 0)">
        <path id="Path_4550" data-name="Path 4550" class="cls-3" d="M-100.422-117.133l4.653-4.393-4.653-4.135c0,.7,0,1.264,0,1.827,0,.6-.229.827-.864.845a7.559,7.559,0,0,0-5.874,2.879,6.794,6.794,0,0,0-1.394,2.974c.186-.159.3-.244.4-.339a9.4,9.4,0,0,1,6.77-2.577c.759.007.965.2.967.908,0,.688,0,1.376,0,2.01m-1.352-7.19c0-.779,0-1.526,0-2.273a1.276,1.276,0,0,1,.018-.494c.107-.238.238-.545.448-.638a.888.888,0,0,1,.731.172c.8.661,1.565,1.366,2.343,2.055q1.9,1.684,3.8,3.367c.532.472.54.8.025,1.294q-3.022,2.883-6.049,5.76a.83.83,0,0,1-.894.277c-.389-.136-.421-.463-.423-.79,0-.887,0-1.774,0-2.661,0-.15,0-.3,0-.57-.8.144-1.553.22-2.266.421a7.458,7.458,0,0,0-3.221,1.912c-.5.488-1.007.961-1.512,1.44a.727.727,0,0,1-.814.247.717.717,0,0,1-.431-.746,8.681,8.681,0,0,1,7.93-8.712c.085-.009.168-.032.314-.061" transform="translate(110.026 127.755)"/>
      </g>
    </g>
  </g>
</svg>
