<svg xmlns="http://www.w3.org/2000/svg" xmlns:xlink="http://www.w3.org/1999/xlink" viewBox="-3839.246 -2165 126.492 146.772">
  <defs>
    <style>
      .cls-1 {
        fill: none;
      }

      .cls-2 {
        fill: #2cc9ff;
      }

      .cls-3 {
        clip-path: url(#clip-path);
      }

      .cls-4, .cls-5 {
        fill-rule: evenodd;
      }

      .cls-5 {
        fill: #fff;
      }
    </style>
    <clipPath id="clip-path">
      <path id="Path_4625" data-name="Path 4625" class="cls-1" d="M0-231.466H126.492V-84.694H0Z" transform="translate(0 231.466)"/>
    </clipPath>
  </defs>
  <g id="Group_5428" data-name="Group 5428" transform="translate(-4736 -7814)">
    <circle id="Ellipse_211" data-name="Ellipse 211" class="cls-2" cx="27" cy="27" r="27" transform="translate(927 5691)"/>
    <g id="Group_5098" data-name="Group 5098" transform="translate(896.754 5649)">
      <g id="Group_5097" data-name="Group 5097" class="cls-3">
        <g id="Group_5081" data-name="Group 5081" transform="translate(0 19.578)">
          <path id="Path_4609" data-name="Path 4609" class="cls-4" d="M-43.93-64.142a55.454,55.454,0,0,1-63.239-20.693c-17.712-25.34-9.216-53.108.978-65.267.015.032.03.066.046.1,2.17-5.281,6.519-8.971,11.582-11.742a47.233,47.233,0,0,1,12.212-6.7l.042.089a10.544,10.544,0,0,1,3.733-1.787,10.7,10.7,0,0,1,5.272-1.5c0-.02-.007-.039-.011-.058,3.557-.291,6.854-.672,10.16-.8,2.544-.1,3.757-.124,4.561.528,1.115-.054,2.239-.068,3.363-.039-.036-.108-.072-.215-.109-.328l2.076.432a25.749,25.749,0,0,1,9.751,2.567,7.376,7.376,0,0,1,.732.436c-.018-.082-.033-.164-.051-.249C-25.808-163.906-8.5-146.407-6.2-122.467A55.547,55.547,0,0,1-43.93-64.142m37.711-70.964a58.194,58.194,0,0,0-73.013-37.438,55.96,55.96,0,0,0-34.555,29.588c-8.155,16.553-8.277,33.391-.844,50.268a58.209,58.209,0,0,0,71.166,31.14A58.282,58.282,0,0,0-6.219-135.106" transform="translate(120.06 175.298)"/>
        </g>
        <g id="Group_5082" data-name="Group 5082" transform="translate(86.403 138.136)">
          <path id="Path_4610" data-name="Path 4610" class="cls-4" d="M-.269-2.3C-.417-3.292-1-4.56-.6-5.193A3.166,3.166,0,0,1,2.147-6.257,1.8,1.8,0,0,1,3.18-3.37C2.674-2.634,1.495-2.358.617-1.876L-.269-2.3" transform="translate(0.736 6.295)"/>
        </g>
        <g id="Group_5083" data-name="Group 5083" transform="translate(122.191 72.745)">
          <path id="Path_4611" data-name="Path 4611" class="cls-4" d="M-2.1-.211c.226.98.911,2.2.555,2.872a3.177,3.177,0,0,1-2.66,1.244A1.813,1.813,0,0,1-5.47,1.1C-5.043.321-3.855-.035-3.008-.577l.9.366" transform="translate(5.75 0.577)"/>
        </g>
        <g id="Group_5084" data-name="Group 5084" transform="translate(107.483 118.229)">
          <path id="Path_4612" data-name="Path 4612" class="cls-4" d="M-.4-2.549c-.251-.963-.82-1.976-.675-2.874a1.827,1.827,0,0,1,2.609-1.4C2.88-6.373,3.6-5.309,2.87-4.029,2.422-3.239,1.34-2.808.541-2.216L-.4-2.549" transform="translate(1.101 6.965)"/>
        </g>
        <g id="Group_5085" data-name="Group 5085" transform="translate(116.835 101.527)">
          <path id="Path_4613" data-name="Path 4613" class="cls-4" d="M-.362-2.4c-.215-.98-.888-2.219-.521-2.872A3.177,3.177,0,0,1,1.8-6.547,1.872,1.872,0,0,1,3.039-3.685C2.587-2.911,1.393-2.569.53-2.035L-.362-2.4" transform="translate(0.991 6.569)"/>
        </g>
        <g id="Group_5086" data-name="Group 5086" transform="translate(77.919 142.47)">
          <path id="Path_4614" data-name="Path 4614" class="cls-4" d="M-2.869-1.977c-1.73.424-2.955,1.132-3.649.783a3.134,3.134,0,0,1-1.3-2.661A1.853,1.853,0,0,1-4.985-5.113c.786.461,1.152,1.642,2.116,3.136" transform="translate(7.84 5.402)"/>
        </g>
        <g id="Group_5087" data-name="Group 5087" transform="translate(121.87 63.372)">
          <path id="Path_4615" data-name="Path 4615" class="cls-4" d="M-.339-2.533c-.205-.985-.755-2.056-.536-2.934a1.908,1.908,0,0,1,2.9-1.189A1.857,1.857,0,0,1,3-3.842C2.481-3.076,1.375-2.709.532-2.165l-.871-.368" transform="translate(0.926 6.923)"/>
        </g>
        <g id="Group_5088" data-name="Group 5088" transform="translate(101.314 125.591)">
          <path id="Path_4616" data-name="Path 4616" class="cls-4" d="M-.453-2.6c-.281-.953-.909-1.963-.764-2.845A1.753,1.753,0,0,1,1.5-6.79,3.153,3.153,0,0,1,2.724-4.14C2.569-3.4,1.28-2.894.492-2.285L-.453-2.6" transform="translate(1.239 7.092)"/>
        </g>
        <g id="Group_5089" data-name="Group 5089" transform="translate(112.766 109.75)">
          <path id="Path_4617" data-name="Path 4617" class="cls-4" d="M-1.835-.18c.292.954.95,1.975.791,2.848A1.8,1.8,0,0,1-3.791,4.024a3.136,3.136,0,0,1-1.2-2.653C-4.838.63-3.564.12-2.783-.492l.948.312" transform="translate(5.016 0.492)"/>
        </g>
        <g id="Group_5090" data-name="Group 5090" transform="translate(119.656 92.433)">
          <path id="Path_4618" data-name="Path 4618" class="cls-4" d="M-2.608-1.835c-.969.3-1.995.946-2.893.8A1.785,1.785,0,0,1-6.838-3.786a3.109,3.109,0,0,1,2.658-1.2c.757.175,1.256,1.467,1.868,2.268l-.3.882" transform="translate(7.127 5.015)"/>
        </g>
        <g id="Group_5091" data-name="Group 5091" transform="translate(94.252 132.41)">
          <path id="Path_4619" data-name="Path 4619" class="cls-4" d="M-.4-2.457c-.24-.977-.938-2.181-.6-2.868A3.123,3.123,0,0,1,1.615-6.7,1.824,1.824,0,0,1,2.9-3.9c-.46.793-1.6,1.192-2.437,1.767L-.4-2.457" transform="translate(1.085 6.715)"/>
        </g>
        <g id="Group_5092" data-name="Group 5092" transform="translate(121.807 82.644)">
          <path id="Path_4620" data-name="Path 4620" class="cls-4" d="M-2.392-2.09c-.975.239-2.181.937-2.859.592a3.155,3.155,0,0,1-1.276-2.63A1.783,1.783,0,0,1-3.762-5.434C-2.977-5-2.606-3.819-2.05-2.972c-.115.294-.228.588-.342.883" transform="translate(6.537 5.711)"/>
        </g>
        <g id="Group_5093" data-name="Group 5093" transform="translate(53.161 0)">
          <path id="Path_4621" data-name="Path 4621" class="cls-4" d="M-28.544-25.194l.29,0Q-26.78-37.42-25.3-49.667a3.623,3.623,0,0,0-3.74,2.987,19.575,19.575,0,0,0-.394,4.43c.016,2.168.211,4.335.328,6.5q.283,5.276.566,10.553m-4.079-5.88.277-.01q-.893-16.943-1.786-33.888c-3.237.232-4.992,1.987-5.04,5.038-.036,2.306-.06,4.618.073,6.919a18.423,18.423,0,0,0,.743,4.472c1.3,4.1,2.774,8.151,4.141,12.235.579,1.729,1.064,3.489,1.592,5.235M-55.086.992c1.639-1.436,3.268-2.812,4.824-4.268a2.456,2.456,0,0,0,.691-1.453c.228-2.53.306-5.075.56-7.6a5.537,5.537,0,0,0-.808-3.314c-1.134-2.164-2.675-3.105-5.1-2.756a2.027,2.027,0,0,0-1.544.71,13.377,13.377,0,0,1-6.208,4.422c-.5.172-1.014.29-1.548.44a14.766,14.766,0,0,1,.049,7.042.981.981,0,0,0,.276.841c2.9,1.989,5.829,3.941,8.808,5.94m-12.4-18.78c1.8,1.653,2.9,1.908,4.742.633,1.6-1.1,2.931-2.581,4.432-3.831a3.249,3.249,0,0,1,1.7-.859,45.4,45.4,0,0,1,5.6.084,2.738,2.738,0,0,1,1.769.93c1.22,1.585,2.327,3.261,3.39,4.956a3.12,3.12,0,0,1,.419,1.717c-.191,3.593-.406,7.186-.725,10.769A3.4,3.4,0,0,1-47.145-1.4C-49.17.511-51.3,2.31-53.393,4.143c-1.139,1-1.725,1.035-2.985.189Q-61.7.756-67.023-2.832a1.87,1.87,0,0,1-.97-2.489,15.3,15.3,0,0,0,.3-6.46,4.607,4.607,0,0,0-2.517-3.6c-.76-.36-1.19-.3-1.437.649-.9,3.479-1.867,6.942-2.855,10.4a2.42,2.42,0,0,0,.224,2.011C-71,3.62-67.707,9.554-64.546,15.56q3.553,6.753,6.758,13.686a1.978,1.978,0,0,0,2.15,1.412c5.5-.045,11-.014,16.5-.011,1.256,0,2.513,0,3.768,0,.945,0,1.559-.341,1.582-1.4a26.01,26.01,0,0,1,.157-2.742q1.461-11.3,2.963-22.6C-30.2.346-29.336-3.15-29.744-6.81a46.631,46.631,0,0,0-1.872-8.931c-2.891-9.151-5.637-18.35-8.6-27.478-1.739-5.352-3.808-10.6-5.684-15.906-.292-.825-.646-.964-1.4-.614a5.116,5.116,0,0,0-2.893,3.1,6.647,6.647,0,0,0-.016,4.494c1.151,3.119,2.352,6.219,3.518,9.333a46.853,46.853,0,0,1,1.771,4.976,45,45,0,0,1,1.21,6.7,5.8,5.8,0,0,0,2.891,4.765,5.368,5.368,0,0,1,1.947,1.87c2.188,4.217,4.264,8.491,6.364,12.752.611,1.24.372,2.243-.6,2.721s-1.936.033-2.53-1.169c-1.793-3.619-3.616-7.223-5.352-10.868a7.722,7.722,0,0,0-2.666-3.228c-1.737-1.184-3.408-2.471-5.061-3.772a2.221,2.221,0,0,0-1.966-.462c-2.3.453-4.586,1-6.907,1.252A5.845,5.845,0,0,0-62-24.653c-1.71,2.354-3.628,4.557-5.491,6.865m20.3-13.9c-.563-2.363-.951-4.786-1.73-7.075-1.313-3.851-2.871-7.619-4.337-11.417a12.922,12.922,0,0,1-.588-7.6,5.644,5.644,0,0,1,3.133-4.161,37.164,37.164,0,0,1,4.739-1.8c1.373-.419,2.039.043,2.562,1.433.185.492.382.98.64,1.64a9.756,9.756,0,0,1,10.16-8.177c1.136.025,1.77.711,1.839,1.987q.381,6.966.762,13.932c.016.269.049.538.08.873a3.632,3.632,0,0,0,.587-.164,11.33,11.33,0,0,1,5.643-1.043c1.6.084,2.233.758,2.053,2.332-.462,4.014-.961,8.023-1.448,12.033-1.134,9.332-2.288,18.662-3.38,28a12.88,12.88,0,0,0,.145,3.344c.551,3.7-.146,7.3-.7,10.922-1.29,8.386-2.794,16.744-3.233,25.24-.021.406-.058.813-.108,1.217a4.445,4.445,0,0,1-4.767,4.295q-10.7.033-21.39-.011c-2.477-.01-3.738-1.2-4.44-3.637a20.39,20.39,0,0,0-1.728-3.895C-67.363,17.831-72.024,9.085-76.79.395a7.414,7.414,0,0,1-.819-6.419c1.259-3.758,2.125-7.648,3.161-11.482.365-1.347.838-1.8,2.234-1.695a2.486,2.486,0,0,0,2.353-1.174c2.216-2.835,4.528-5.595,6.754-8.421a3.725,3.725,0,0,1,2.461-1.429c3.244-.555,6.482-1.155,9.714-1.771,1.21-.23,2.41-.6,3.444.574l.3-.271" transform="translate(78.011 68.856)"/>
        </g>
        <g id="Group_5094" data-name="Group 5094" transform="translate(55.699 7.459)">
          <path id="Path_4622" data-name="Path 4622" class="cls-5" d="M-4.226-24.958C-2.314-27.327-.344-29.588,1.411-32a6.007,6.007,0,0,1,4.52-2.688c2.382-.26,4.734-.819,7.092-1.284a2.276,2.276,0,0,1,2.017.475c1.7,1.335,3.412,2.657,5.2,3.872a7.948,7.948,0,0,1,2.738,3.315c1.781,3.743,3.654,7.442,5.494,11.158.61,1.233,1.6,1.689,2.6,1.2s1.245-1.519.618-2.793c-2.157-4.374-4.289-8.762-6.536-13.091a5.485,5.485,0,0,0-2-1.921,5.954,5.954,0,0,1-2.969-4.893,45.97,45.97,0,0,0-1.242-6.881,47.864,47.864,0,0,0-1.819-5.11c-1.2-3.2-2.431-6.378-3.611-9.581a6.82,6.82,0,0,1,.015-4.614,5.258,5.258,0,0,1,2.97-3.187c.775-.36,1.138-.216,1.438.631,1.926,5.451,4.051,10.835,5.836,16.331,3.046,9.37,5.864,18.814,8.832,28.21a47.754,47.754,0,0,1,1.923,9.167c.42,3.758-.464,7.347-.947,11q-1.539,11.6-3.042,23.2a26.521,26.521,0,0,0-.161,2.814c-.024,1.089-.654,1.441-1.624,1.438-1.289,0-2.579,0-3.869,0-5.646,0-11.293-.036-16.939.011a2.032,2.032,0,0,1-2.207-1.449Q2.436,16.225-1.205,9.28C-4.451,3.114-7.835-2.979-11.2-9.084a2.483,2.483,0,0,1-.229-2.064c1.013-3.548,2-7.1,2.931-10.677.254-.977.694-1.035,1.476-.665a4.728,4.728,0,0,1,2.583,3.7,15.71,15.71,0,0,1-.309,6.631,1.917,1.917,0,0,0,1,2.555Q1.712-5.919,7.181-2.248c1.292.869,1.895.828,3.063-.194,2.151-1.881,4.336-3.727,6.415-5.686a3.481,3.481,0,0,0,1-2.046c.328-3.678.549-7.369.744-11.057a3.194,3.194,0,0,0-.428-1.762c-1.094-1.742-2.228-3.463-3.481-5.089a2.81,2.81,0,0,0-1.816-.955,46.559,46.559,0,0,0-5.745-.086,3.33,3.33,0,0,0-1.744.881c-1.541,1.285-2.909,2.8-4.55,3.933-1.9,1.31-3.021,1.049-4.869-.651" transform="translate(11.55 68.211)"/>
        </g>
        <g id="Group_5095" data-name="Group 5095" transform="translate(91.432 2.402)">
          <path id="Path_4623" data-name="Path 4623" class="cls-5" d="M-3.9-20.082c-.542-1.793-1.039-3.6-1.633-5.375-1.4-4.191-2.916-8.348-4.252-12.561a18.994,18.994,0,0,1-.763-4.59c-.136-2.362-.111-4.735-.074-7.1.05-3.131,1.85-4.933,5.175-5.172q.916,17.4,1.832,34.792l-.284.01" transform="translate(10.648 54.884)"/>
        </g>
        <g id="Group_5096" data-name="Group 5096" transform="translate(101.453 18.116)">
          <path id="Path_4624" data-name="Path 4624" class="cls-5" d="M-.53-14.5q-.29-5.419-.581-10.835c-.119-2.226-.32-4.451-.337-6.676a20.277,20.277,0,0,1,.4-4.548A3.722,3.722,0,0,1,2.8-39.624Q1.279-27.039-.231-14.5l-.3,0" transform="translate(1.448 39.624)"/>
        </g>
      </g>
    </g>
  </g>
</svg>
