<svg xmlns="http://www.w3.org/2000/svg" xmlns:xlink="http://www.w3.org/1999/xlink" viewBox="-12061 1313 171.1 174">
  <defs>
    <style>
      .cls-1 {
        fill: none;
      }

      .cls-2 {
        fill: #2cc9ff;
      }

      .cls-3 {
        clip-path: url(#clip-path);
      }

      .cls-4 {
        fill-rule: evenodd;
      }
    </style>
    <clipPath id="clip-path">
      <path id="Path_4504" data-name="Path 4504" class="cls-1" d="M0-459.473H171.1v164.19H0Z" transform="translate(0 459.473)"/>
    </clipPath>
  </defs>
  <g id="Group_5347" data-name="Group 5347" transform="translate(-12061 1313)">
    <g id="Group_4973" data-name="Group 4973" transform="translate(0 0)">
      <ellipse id="Ellipse_189" data-name="Ellipse 189" class="cls-2" cx="35.351" cy="35.388" rx="35.351" ry="35.388" transform="translate(11.312)"/>
      <g id="Group_4827" data-name="Group 4827" transform="translate(0 9.811)">
        <g id="Group_4826" data-name="Group 4826" class="cls-3">
          <g id="Group_4800" data-name="Group 4800" transform="translate(5.406 105.84)">
            <path id="Path_4478" data-name="Path 4478" class="cls-4" d="M-216.021-8.731c-2.522,0-4.827,0-7.133,0-2.5,0-5,.1-7.494-.015-1.393-.062-1.714.445-1.7,1.738.06,6.073.049,12.148.038,18.221,0,3.1-.543,3.648-3.638,3.687-2.5.032-5,.02-7.495-.009s-3.142-.693-3.16-3.239c-.027-3.923-.007-7.846-.007-11.917h-10.254c0,2.123,0,4.188,0,6.255q0,9.736,0,19.472c0,2.613-.781,3.372-3.425,3.382-3.093.012-6.186.032-9.28.012s-3.669-.582-3.676-3.636c-.012-4.454,0-8.907,0-13.6-2.181,0-4.184,0-6.187,0-1.784-.005-3.569-.014-5.354-.035-2.519-.03-3.2-.682-3.206-3.177-.012-5.062.01-10.124.009-15.185,0-.639-.054-1.276-.086-2h-13.765c0,.8,0,1.542,0,2.287q.01,18.847.02,37.694c0,3.059-.6,3.677-3.639,3.693q-5.711.03-11.421,0c-2.2-.01-3.032-.825-3.064-3.007s-.007-4.394-.007-6.759h-11.177v3.695c0,4.109.01,8.218,0,12.327-.006,2.333-.789,3.469-2.379,3.514s-2.438-1.116-2.439-3.424q-.006-8.933.007-17.865c0-2.342.757-3.117,3.09-3.125q7.406-.027,14.812,0c2.133.008,2.918.791,2.95,2.9.028,1.846.044,3.693,0,5.538-.027,1.084.412,1.473,1.482,1.443a53.342,53.342,0,0,1,5.351.043c1.573.114,1.831-.561,1.825-1.973-.053-12.207-.032-24.414-.032-36.622,0-.834.025-1.667.021-2.5a2.328,2.328,0,0,1,2.486-2.644q9.1-.072,18.2.02c1.678.016,2.443.952,2.459,2.855.044,5.18.083,10.362,0,15.542-.023,1.537.351,2.088,1.982,2.023,3.207-.128,6.423-.028,9.635-.008,2.654.015,3.344.717,3.351,3.434.011,4.513,0,9.025,0,13.66h6.677c.04-.815.11-1.568.111-2.322q.012-11.612.007-23.223c0-3.012.643-3.632,3.691-3.631,4.283,0,8.567-.011,12.85.005,2.417.009,3.189.788,3.2,3.221.017,3.513.049,7.028-.017,10.54-.024,1.251.412,1.773,1.642,1.631a3.126,3.126,0,0,1,.357,0c3.414,0,2.892.188,2.9-2.815.022-5.9-.01-11.791.015-17.686.011-2.476.71-3.152,3.232-3.156q9.637-.016,19.273.025c2.537.008,3.248.763,3.247,3.34q-.005,13.042-.007,26.083v2.289h11.912q0-1.317,0-2.626c0-3.275-.009-6.551,0-9.826,0-1.624.8-2.688,2.438-2.712,4.876-.073,9.755-.086,14.632-.013,1.662.025,2.341,1.055,2.346,3.145q.027,10.362.019,20.723c0,.644,0,1.289,0,2.233,2.285,0,4.406-.028,6.525.007,2.374.039,2.984.648,3,2.962q.029,4.823,0,9.646c-.013,1.947-.831,2.947-2.326,2.949s-2.356-1-2.385-2.919c-.039-2.545-.01-5.09-.01-7.894-2.291,0-4.414.012-6.536,0-2.315-.016-3.128-.793-3.135-3.106-.02-6.788,0-13.577-.012-20.365-.005-2.884.306-2.615-2.537-2.619-2.369,0-4.738,0-7.369,0,0,1.916,0,3.682,0,5.449-.005,2.382.015,4.764-.035,7.145-.04,1.877-.872,2.734-2.753,2.747q-7.941.056-15.882,0c-1.995-.014-2.736-.956-2.742-3.321q-.029-13.131-.034-26.261c0-.7,0-1.4,0-2.35" transform="translate(335.944 13.585)"/>
          </g>
          <g id="Group_4801" data-name="Group 4801" transform="translate(22.384 0)">
            <path id="Path_4479" data-name="Path 4479" class="cls-4" d="M-76.632-42.536A18.988,18.988,0,0,0-95.48-61.443a19,19,0,0,0-18.966,18.795A19.076,19.076,0,0,0-95.677-23.633a19.05,19.05,0,0,0,19.045-18.9M-95.593-66.188A23.71,23.71,0,0,1-71.881-42.465,23.754,23.754,0,0,1-95.788-18.913a23.591,23.591,0,0,1-23.385-24,23.664,23.664,0,0,1,23.58-23.274" transform="translate(119.173 66.188)"/>
          </g>
          <g id="Group_4802" data-name="Group 4802" transform="translate(137.18 42.203)">
            <path id="Path_4480" data-name="Path 4480" class="cls-4" d="M-6.639-29.216A12.671,12.671,0,0,0,6.2-16.458,12.971,12.971,0,0,0,19.03-29.332,13.009,13.009,0,0,0,5.915-41.921,12.8,12.8,0,0,0-6.639-29.216M6.127-45.461a16.3,16.3,0,0,1,16.42,16.229A16.461,16.461,0,0,1,6.2-12.865a16.54,16.54,0,0,1-16.528-16.4,16.317,16.317,0,0,1,16.451-16.2" transform="translate(10.324 45.461)"/>
          </g>
          <g id="Group_4803" data-name="Group 4803" transform="translate(100.389 14.878)">
            <path id="Path_4481" data-name="Path 4481" class="cls-4" d="M-52.738-29.569A12.678,12.678,0,0,0-65.659-42.422,12.787,12.787,0,0,0-78.42-29.727a12.9,12.9,0,0,0,12.891,12.8A12.713,12.713,0,0,0-52.738-29.569M-65.433-13.42A16.514,16.514,0,0,1-82.007-29.04,16.528,16.528,0,0,1-66.217-46,16.481,16.481,0,0,1-49.1-30.368,16.405,16.405,0,0,1-65.433-13.42" transform="translate(82.015 46.01)"/>
          </g>
          <g id="Group_4804" data-name="Group 4804" transform="translate(0 59.305)">
            <path id="Path_4482" data-name="Path 4482" class="cls-4" d="M-29.343-6.508a12.7,12.7,0,0,0-12.8,12.8A12.817,12.817,0,0,0-29.324,18.933,12.777,12.777,0,0,0-16.451,6.361,12.62,12.62,0,0,0-29.343-6.508m.214-3.617A16.376,16.376,0,0,1-12.857,6.68,16.215,16.215,0,0,1-29.518,22.474,16.358,16.358,0,0,1-45.632,6.061a16.283,16.283,0,0,1,16.5-16.185" transform="translate(45.633 10.127)"/>
          </g>
          <g id="Group_4805" data-name="Group 4805" transform="translate(75.1 70.186)">
            <path id="Path_4483" data-name="Path 4483" class="cls-4" d="M-36.97-21.767a8.375,8.375,0,0,0-8.248-8.539,8.633,8.633,0,0,0-8.753,8.512,8.516,8.516,0,0,0,8.426,8.423,8.352,8.352,0,0,0,8.575-8.4m3.592-.023A12.186,12.186,0,0,1-45.623-9.739,12.133,12.133,0,0,1-57.494-21.788a12.032,12.032,0,0,1,12.15-12.083A12.008,12.008,0,0,1-33.379-21.79" transform="translate(57.494 33.871)"/>
          </g>
          <g id="Group_4806" data-name="Group 4806" transform="translate(13.953 99.275)">
            <path id="Path_4484" data-name="Path 4484" class="cls-4" d="M-8.544-4.405a2.422,2.422,0,0,1-2.534,2.219,2.37,2.37,0,0,1-2.188-2.543,2.293,2.293,0,0,1,2.431-2.125A2.344,2.344,0,0,1-8.544-4.405" transform="translate(13.287 6.854)"/>
          </g>
          <g id="Group_4807" data-name="Group 4807" transform="translate(13.946 111.082)">
            <path id="Path_4485" data-name="Path 4485" class="cls-4" d="M-4.444-8.442a2.418,2.418,0,0,1-2.466-2.314,2.371,2.371,0,0,1,2.383-2.378,2.278,2.278,0,0,1,2.352,2.219A2.314,2.314,0,0,1-4.444-8.442" transform="translate(6.911 13.136)"/>
          </g>
          <g id="Group_4808" data-name="Group 4808" transform="translate(151.267 82.356)">
            <path id="Path_4486" data-name="Path 4486" class="cls-4" d="M-4.322,0a2.284,2.284,0,0,1,2.3,2.384A2.311,2.311,0,0,1-4.408,4.69,2.288,2.288,0,0,1-6.72,2.316,2.354,2.354,0,0,1-4.322,0" transform="translate(6.721 0)"/>
          </g>
          <g id="Group_4809" data-name="Group 4809" transform="translate(13.953 122.906)">
            <path id="Path_4487" data-name="Path 4487" class="cls-4" d="M-4.26-8.436a2.391,2.391,0,0,1-2.364-2.4,2.374,2.374,0,0,1,2.471-2.284,2.244,2.244,0,0,1,2.255,2.3A2.333,2.333,0,0,1-4.26-8.436" transform="translate(6.625 13.128)"/>
          </g>
          <g id="Group_4810" data-name="Group 4810" transform="translate(114.497 90.163)">
            <path id="Path_4488" data-name="Path 4488" class="cls-4" d="M0-4.169A2.335,2.335,0,0,1,2.407-6.486,2.32,2.32,0,0,1,4.674-4.033,2.215,2.215,0,0,1,2.38-1.8,2.369,2.369,0,0,1,0-4.169" transform="translate(0 6.487)"/>
          </g>
          <g id="Group_4811" data-name="Group 4811" transform="translate(114.499 54.742)">
            <path id="Path_4489" data-name="Path 4489" class="cls-4" d="M-8.439-4.242a2.375,2.375,0,0,1-2.432,2.309,2.327,2.327,0,0,1-2.243-2.482A2.169,2.169,0,0,1-10.8-6.6,2.314,2.314,0,0,1-8.439-4.242" transform="translate(13.124 6.601)"/>
          </g>
          <g id="Group_4812" data-name="Group 4812" transform="translate(151.266 94.196)">
            <path id="Path_4490" data-name="Path 4490" class="cls-4" d="M-8.473-4.541a2.322,2.322,0,0,1-2.6,2.109,2.244,2.244,0,0,1-2.069-2.608,2.225,2.225,0,0,1,2.5-2.025A2.251,2.251,0,0,1-8.473-4.541" transform="translate(13.177 7.065)"/>
          </g>
          <g id="Group_4813" data-name="Group 4813" transform="translate(114.507 78.356)">
            <path id="Path_4491" data-name="Path 4491" class="cls-4" d="M-8.436-4.233A2.317,2.317,0,0,1-10.829-1.9a2.287,2.287,0,0,1-2.283-2.28A2.261,2.261,0,0,1-10.82-6.586,2.359,2.359,0,0,1-8.436-4.233" transform="translate(13.119 6.586)"/>
          </g>
          <g id="Group_4814" data-name="Group 4814" transform="translate(114.501 66.552)">
            <path id="Path_4492" data-name="Path 4492" class="cls-4" d="M-4.435-8.413A2.379,2.379,0,0,1-6.9-10.692a2.278,2.278,0,0,1,2.3-2.4,2.21,2.21,0,0,1,2.358,2.161,2.324,2.324,0,0,1-2.2,2.517" transform="translate(6.898 13.09)"/>
          </g>
          <g id="Group_4815" data-name="Group 4815" transform="translate(43.65 54.74)">
            <path id="Path_4493" data-name="Path 4493" class="cls-4" d="M-8.431-4.263A2.311,2.311,0,0,1-10.86-1.971,2.294,2.294,0,0,1-13.1-4.449a2.215,2.215,0,0,1,2.344-2.183,2.246,2.246,0,0,1,2.321,2.37" transform="translate(13.112 6.633)"/>
          </g>
          <g id="Group_4816" data-name="Group 4816" transform="translate(43.655 90.155)">
            <path id="Path_4494" data-name="Path 4494" class="cls-4" d="M-8.451-4.409a2.335,2.335,0,0,1-2.491,2.232,2.278,2.278,0,0,1-2.2-2.364A2.305,2.305,0,0,1-10.73-6.86,2.339,2.339,0,0,1-8.451-4.409" transform="translate(13.143 6.861)"/>
          </g>
          <g id="Group_4817" data-name="Group 4817" transform="translate(84.858 100.562)">
            <path id="Path_4495" data-name="Path 4495" class="cls-4" d="M-8.4-4.234a2.467,2.467,0,0,1-2.422,2.361A2.29,2.29,0,0,1-13.06-4.345a2.178,2.178,0,0,1,2.272-2.241A2.342,2.342,0,0,1-8.4-4.234" transform="translate(13.065 6.589)"/>
          </g>
          <g id="Group_4818" data-name="Group 4818" transform="translate(151.267 105.987)">
            <path id="Path_4496" data-name="Path 4496" class="cls-4" d="M-4.354,0A2.3,2.3,0,0,1-2.068,2.437a2.28,2.28,0,0,1-2.5,2.2,2.186,2.186,0,0,1-2.2-2.321A2.33,2.33,0,0,1-4.354,0" transform="translate(6.772 0.002)"/>
          </g>
          <g id="Group_4819" data-name="Group 4819" transform="translate(43.638 78.347)">
            <path id="Path_4497" data-name="Path 4497" class="cls-4" d="M-4.323,0A2.251,2.251,0,0,1-2.042,2.411,2.2,2.2,0,0,1-4.309,4.665,2.335,2.335,0,0,1-6.723,2.34,2.369,2.369,0,0,1-4.323,0" transform="translate(6.723 0)"/>
          </g>
          <g id="Group_4820" data-name="Group 4820" transform="translate(43.645 66.534)">
            <path id="Path_4498" data-name="Path 4498" class="cls-4" d="M-8.446-4.171a2.269,2.269,0,0,1-2.359,2.346,2.255,2.255,0,0,1-2.32-2.231,2.305,2.305,0,0,1,2.283-2.434,2.3,2.3,0,0,1,2.4,2.318" transform="translate(13.135 6.49)"/>
          </g>
          <g id="Group_4821" data-name="Group 4821" transform="translate(34.015 12.851)">
            <path id="Path_4499" data-name="Path 4499" class="cls-4" d="M-20.92-36.77C-24.4-40.173-27.8-43.337-31-46.695a6.271,6.271,0,0,1,.37-8.588,6.273,6.273,0,0,1,8.567-.458,1.165,1.165,0,0,0,1.862,0,6.27,6.27,0,0,1,8.633.541,6.374,6.374,0,0,1-.025,8.91c-2.607,2.713-5.3,5.341-7.95,8.015-.5.5-.955,1.046-1.373,1.507" transform="translate(32.534 57.216)"/>
          </g>
          <g id="Group_4822" data-name="Group 4822" transform="translate(8.375 69.287)">
            <path id="Path_4500" data-name="Path 4500" class="cls-4" d="M-12.934-22.732c-2.15-2.1-4.255-4.06-6.235-6.136a3.877,3.877,0,0,1,.229-5.309,3.879,3.879,0,0,1,5.3-.283.72.72,0,0,0,1.151,0,3.876,3.876,0,0,1,5.337.334,3.94,3.94,0,0,1-.015,5.508c-1.612,1.677-3.278,3.3-4.915,4.955-.308.311-.59.646-.849.931" transform="translate(20.114 35.372)"/>
          </g>
          <g id="Group_4823" data-name="Group 4823" transform="translate(81.772 78.212)">
            <path id="Path_4501" data-name="Path 4501" class="cls-4" d="M-9.9-17.4c-1.646-1.61-3.257-3.107-4.772-4.7a2.968,2.968,0,0,1,.175-4.064,2.969,2.969,0,0,1,4.054-.217.551.551,0,0,0,.881,0,2.967,2.967,0,0,1,4.085.257A3.016,3.016,0,0,1-5.488-21.9C-6.722-20.621-8-19.377-9.25-18.112c-.236.238-.451.495-.649.713" transform="translate(15.395 27.074)"/>
          </g>
          <g id="Group_4824" data-name="Group 4824" transform="translate(111.451 26.339)">
            <path id="Path_4502" data-name="Path 4502" class="cls-4" d="M-9.9-17.4c-1.646-1.61-3.257-3.107-4.772-4.7a2.968,2.968,0,0,1,.175-4.064,2.969,2.969,0,0,1,4.054-.217.551.551,0,0,0,.881,0,2.967,2.967,0,0,1,4.085.257A3.016,3.016,0,0,1-5.488-21.9C-6.722-20.621-8-19.377-9.25-18.112c-.236.238-.451.495-.649.713" transform="translate(15.395 27.074)"/>
          </g>
          <g id="Group_4825" data-name="Group 4825" transform="translate(144.944 51.51)">
            <path id="Path_4503" data-name="Path 4503" class="cls-4" d="M-15.952-28.036c-2.652-2.595-5.247-5.007-7.69-7.567a4.783,4.783,0,0,1,.282-6.548,4.786,4.786,0,0,1,6.533-.349.886.886,0,0,0,1.419,0,4.781,4.781,0,0,1,6.583.413A4.86,4.86,0,0,1-8.843-35.3c-1.988,2.068-4.043,4.072-6.062,6.111-.38.383-.727.8-1.047,1.149" transform="translate(24.808 43.626)"/>
          </g>
        </g>
      </g>
    </g>
  </g>
</svg>
