<svg xmlns="http://www.w3.org/2000/svg" xmlns:xlink="http://www.w3.org/1999/xlink" viewBox="-11865 1313 154.875 174">
  <defs>
    <style>
      .cls-1 {
        fill: none;
      }

      .cls-2 {
        fill: #2cc9ff;
      }

      .cls-3 {
        clip-path: url(#clip-path);
      }

      .cls-4 {
        fill-rule: evenodd;
      }
    </style>
    <clipPath id="clip-path">
      <path id="Path_4508" data-name="Path 4508" class="cls-1" d="M0-404.788H154.875v123.644H0Z" transform="translate(0 404.788)"/>
    </clipPath>
  </defs>
  <g id="Group_5348" data-name="Group 5348" transform="translate(-11865 1313)">
    <g id="Group_4974" data-name="Group 4974" transform="translate(0)">
      <ellipse id="Ellipse_190" data-name="Ellipse 190" class="cls-2" cx="39.34" cy="39.34" rx="39.34" ry="39.34" transform="translate(25.838)"/>
      <g id="Group_4833" data-name="Group 4833" transform="translate(0 50.356)">
        <g id="Group_4832" data-name="Group 4832" class="cls-3">
          <g id="Group_4829" data-name="Group 4829" transform="translate(81.213 8.271)">
            <path id="Path_4505" data-name="Path 4505" class="cls-4" d="M-110.727-63.258c2.5-7.259,4.983-14.524,7.51-21.774A8.929,8.929,0,0,1-88.3-88.3a8.57,8.57,0,0,1,2.124,8.77q-6.726,22.914-13.561,45.8a7.008,7.008,0,0,1-1.694,2.8c-8.351,8.422-16.766,16.779-25.115,25.2a3.515,3.515,0,0,0-.925,2.228c-.06,8.144-.024,16.289-.025,24.433,0,2.371-.683,3.415-2.141,3.363-1.39-.049-1.985-1.042-1.985-3.356,0-8.552.029-17.1,0-25.656a4.03,4.03,0,0,1,1.307-3.1q12.786-12.7,25.5-25.466a5.694,5.694,0,0,0,1.383-2.285Q-96.8-57.8-90.252-80.051a4.933,4.933,0,0,0-2.218-5.928,4.734,4.734,0,0,0-5.884.8,6.046,6.046,0,0,0-1.184,2.089c-3.267,9.368-6.47,18.758-9.771,28.113a12.737,12.737,0,0,1-2.127,3.833c-5.363,6.464-10.816,12.851-16.24,19.264q-.2.234-.4.463c-.848.969-1.827,1.314-2.95.5a2.055,2.055,0,0,1-.13-3.1c1.777-2.162,3.6-4.29,5.4-6.43q5.464-6.479,10.93-12.956c2.216-2.634,2.116-5.867-.224-7.884s-5.563-1.617-7.833.936c-6.933,7.8-13.9,15.567-20.8,23.4A46.143,46.143,0,0,0-155.263-6.507c-.191,9.311-.054,18.63-.063,27.945a6.769,6.769,0,0,1-.025,1.066c-.178,1.1-.9,1.906-1.951,1.708-.732-.138-1.376-.938-1.966-1.535-.194-.2-.125-.683-.123-1.037.055-10.433-.236-20.884.275-31.3a47.669,47.669,0,0,1,12.228-29.8q10.354-11.738,20.824-23.373a12.729,12.729,0,0,1,4.2-3.177c3.548-1.523,6.881-.7,9.783,1.8a6.029,6.029,0,0,1,.865,1.24l.49-.3" transform="translate(159.424 91.079)"/>
          </g>
          <g id="Group_4830" data-name="Group 4830" transform="translate(0 8.755)">
            <path id="Path_4506" data-name="Path 4506" class="cls-4" d="M-56.545-62.584c.463-.435.821-.778,1.186-1.113a9.137,9.137,0,0,1,13.156.409c7.848,8.686,15.769,17.32,23.293,26.283A44.4,44.4,0,0,1-8.563-11.651c.642,8.1.385,16.268.5,24.406.042,3,.014,6.006,0,9.009-.006,2.053-.644,3-1.993,3.006s-2.04-.973-2.042-2.974c-.01-9.315.109-18.633-.054-27.946-.185-10.547-3.309-20.273-10.036-28.41C-29.509-43.42-37.372-51.837-45.048-60.4a5.213,5.213,0,0,0-7.411-.455,5.238,5.238,0,0,0-.479,7.528q8.1,9.65,16.249,19.256c.164.195.339.38.494.582a2.076,2.076,0,0,1-.084,3,1.983,1.983,0,0,1-2.962-.366c-2.3-2.654-4.552-5.35-6.82-8.031-3.123-3.692-6.324-7.322-9.324-11.111a18.424,18.424,0,0,1-2.892-5.123c-3.272-9.149-6.389-18.354-9.569-27.535a4.82,4.82,0,0,0-6.134-3.274,4.924,4.924,0,0,0-3.181,6.241q6.586,22.4,13.228,44.79a5.372,5.372,0,0,0,1.351,2.132q12.608,12.658,25.294,25.24A4.647,4.647,0,0,1-35.81-3.9c-.058,8.653-.035,17.307-.042,25.96,0,1.774-.663,2.691-1.953,2.716-1.325.026-2.084-.942-2.086-2.783-.007-8.246-.016-16.492.036-24.738a3.566,3.566,0,0,0-1.181-2.791Q-53.666-18.06-66.212-30.673a5.7,5.7,0,0,1-1.39-2.292q-6.759-22.747-13.424-45.522a8.924,8.924,0,0,1,4.086-10.39,8.836,8.836,0,0,1,11.132,1.748,9.155,9.155,0,0,1,1.722,3c2.376,6.714,4.672,13.456,7,20.186.143.415.326.815.543,1.354" transform="translate(81.413 90.108)"/>
          </g>
          <g id="Group_4831" data-name="Group 4831" transform="translate(56.032 0)">
            <path id="Path_4507" data-name="Path 4507" class="cls-4" d="M-50.636-89.052c-6.669-6.519-13.2-12.58-19.336-19.011-4.292-4.5-3.719-11.963.709-16.449a12.038,12.038,0,0,1,16.428-.877c1.406,1.2,2.186,1.173,3.57-.006a12.031,12.031,0,0,1,16.553,1.036,12.2,12.2,0,0,1-.047,17.068c-5,5.2-10.167,10.231-15.245,15.353-.955.963-1.83,2-2.632,2.887" transform="translate(72.905 128.217)"/>
          </g>
        </g>
      </g>
    </g>
  </g>
</svg>
