<svg xmlns="http://www.w3.org/2000/svg" viewBox="0 0 102.494 77.313">
  <defs>
    <style>
      .cls-1 {
        fill: #3fccfc;
        stroke: #50cef9;
        fill-rule: evenodd;
      }
    </style>
  </defs>
  <g id="Group_5712" data-name="Group 5712" transform="translate(593.998 -8641.1)">
    <g id="Group_5366" data-name="Group 5366" transform="translate(-1732 4991)">
      <g id="Group_5364" data-name="Group 5364" transform="translate(1194.094 3655.86)">
        <path id="Path_4723" data-name="Path 4723" class="cls-1" d="M-49.081-24.056c0,5.557-.017,11.114.01,16.67A8.474,8.474,0,0,1-50.982-1.82c-5.425,6.776-10.787,13.6-16.195,20.393A7.571,7.571,0,0,0-69.232,22.6c-.106,1.672-.849,1.919-2.282,1.907-7.087-.055-14.174-.023-21.26-.028-1.026,0-2.2.241-2.142-1.449.23-7.313-.5-14.647.422-21.942a18.81,18.81,0,0,1,3.606-8.843q4.135-5.641,8.34-11.229c1.338-1.77,2.9-3.333,5.369-3.128a4.865,4.865,0,0,1,3.852,7.756c-1.663,2.556-3.61,4.927-5.441,7.373s-1.58,3.679,1.2,6.055c1.622,1.387,2.94,1.256,4.707-.8,4.4-5.125,8.692-10.334,13.057-15.486a3.459,3.459,0,0,0,.571-2.509c.006-7.006-.006-14.013.007-21.019.006-3.448,2.086-5.8,5.076-5.8s5.051,2.357,5.063,5.822c.019,5.556,0,11.113,0,16.67" transform="translate(94.973 46.548)"/>
      </g>
      <g id="Group_5365" data-name="Group 5365" transform="translate(1138.502 3655.86)">
        <path id="Path_4724" data-name="Path 4724" class="cls-1" d="M-.01-24.015c0-5.556-.01-11.113,0-16.669C0-44.127,2.089-46.478,5.081-46.469c2.975.01,5.044,2.367,5.052,5.832.017,6.925,0,13.851.011,20.776a3.763,3.763,0,0,0,.589,2.744c4.313,5.09,8.551,10.243,12.892,15.308C25.53.415,26.82.57,28.5-.878c2.764-2.383,2.99-3.606,1.153-6.059s-3.737-4.841-5.447-7.369a4.816,4.816,0,0,1,.779-6.547c1.741-1.518,4.919-1.9,6.4-.074C36.664-14.426,42.957-8.5,45.138,0c.983,3.831.7,7.826.687,11.765-.015,3.624-.057,7.249.023,10.87.033,1.471-.462,1.956-1.94,1.944-7.247-.059-14.494-.018-21.742-.041-.659,0-1.652.331-1.81-.685-.745-4.791-4.416-7.744-7.085-11.292C9.6,7.687,5.715,2.968,1.863-1.774A8.377,8.377,0,0,1-.019-7.345c.027-5.556.01-11.113.009-16.669" transform="translate(0.019 46.469)"/>
      </g>
    </g>
    <path id="Path_4725" data-name="Path 4725" class="cls-1" d="M-7.525,0A8.166,8.166,0,0,1-2.592,1.8c.466.351.892.756,1.326,1.148.292.263.475.272.754-.018A10,10,0,0,1,2.041.965a7.052,7.052,0,0,1,10.3,4.8,9.425,9.425,0,0,1-.747,6.132,20.933,20.933,0,0,1-3.527,5.284A52.143,52.143,0,0,1,.082,24.318Q-.363,24.653-.8,25a.266.266,0,0,1-.373.007A65.428,65.428,0,0,1-8.5,18.888a25.471,25.471,0,0,1-4.654-6.049,10.619,10.619,0,0,1-1.37-5.91A7.473,7.473,0,0,1-9.736.384,6.6,6.6,0,0,1-7.525,0" transform="translate(-541.733 8641.6)"/>
  </g>
</svg>
