<?xml version="1.0" encoding="utf-8"?>
<!-- Generator: Adobe Illustrator 16.0.0, SVG Export Plug-In . SVG Version: 6.00 Build 0)  -->
<!DOCTYPE svg PUBLIC "-//W3C//DTD SVG 1.1//EN" "http://www.w3.org/Graphics/SVG/1.1/DTD/svg11.dtd">
<svg version="1.1" id="Layer_1" xmlns="http://www.w3.org/2000/svg" xmlns:xlink="http://www.w3.org/1999/xlink" x="0px" y="0px"
	 width="199.381px" height="161.872px" viewBox="0 0 199.381 161.872" enable-background="new 0 0 199.381 161.872"
	 xml:space="preserve">
<g>
	<path fill="#43C5F3" d="M110.811,95.492c1.644,0,3.052,0.594,4.227,1.785c1.176,1.189,1.765,2.631,1.765,4.324
		c0,1.672-0.584,3.094-1.746,4.272c-1.165,1.178-2.557,1.769-4.175,1.769c-1.667,0-3.086-0.602-4.263-1.803
		c-1.174-1.201-1.763-2.66-1.763-4.374c0-1.649,0.581-3.056,1.747-4.223C107.765,96.075,109.169,95.492,110.811,95.492z
		 M106.126,110.869h9.371v37.343h-9.371V110.869z"/>
	<path fill="#231F20" d="M1.477,97.724h30.548l-17.978,41.255h16.811v9.233H0l17.895-40.981H1.477V97.724z"/>
	<path fill="#231F20" d="M65.83,110.869h9.372v37.343H65.83v-3.948c-1.828,1.739-3.661,2.993-5.501,3.759
		c-1.84,0.767-3.835,1.149-5.984,1.149c-4.821,0-8.993-1.869-12.513-5.61c-3.518-3.741-5.278-8.392-5.278-13.954
		c0-5.765,1.703-10.488,5.107-14.176c3.405-3.684,7.543-5.524,12.41-5.524c2.241,0,4.343,0.423,6.308,1.269
		c1.966,0.849,3.782,2.119,5.451,3.813V110.869z M55.981,118.556c-2.897,0-5.303,1.025-7.22,3.072
		c-1.915,2.047-2.872,4.674-2.872,7.877c0,3.228,0.974,5.882,2.925,7.964c1.949,2.083,4.35,3.122,7.199,3.122
		c2.942,0,5.382-1.023,7.32-3.07c1.939-2.048,2.908-4.73,2.908-8.049c0-3.249-0.969-5.88-2.908-7.896
		C61.396,119.563,58.945,118.556,55.981,118.556z"/>
	<path fill="#231F20" d="M82.477,110.869h8.031v4.702c0.87-1.853,2.026-3.262,3.468-4.223c1.439-0.961,3.02-1.441,4.736-1.441
		c1.213,0,2.482,0.32,3.81,0.962l-2.918,8.064c-1.099-0.548-2.002-0.822-2.71-0.822c-1.441,0-2.661,0.892-3.657,2.677
		c-0.994,1.785-1.493,5.286-1.493,10.502l0.037,1.818v15.104h-9.304V110.869z"/>
	<path fill="#231F20" d="M119.865,110.869h9.574l9.7,23.43l10.703-23.43h9.604l-23.39,51.003h-9.677l7.68-16.448L119.865,110.869z"
		/>
	<path fill="#231F20" d="M190.009,110.869h9.372v37.343h-9.372v-3.948c-1.828,1.739-3.661,2.993-5.501,3.759
		c-1.84,0.767-3.834,1.149-5.983,1.149c-4.821,0-8.994-1.869-12.514-5.61c-3.518-3.741-5.277-8.392-5.277-13.954
		c0-5.765,1.703-10.488,5.106-14.176c3.405-3.684,7.544-5.524,12.411-5.524c2.24,0,4.342,0.423,6.307,1.269
		c1.966,0.849,3.782,2.119,5.451,3.813V110.869z M180.16,118.556c-2.897,0-5.302,1.025-7.22,3.072
		c-1.914,2.047-2.872,4.674-2.872,7.877c0,3.228,0.974,5.882,2.925,7.964c1.949,2.083,4.35,3.122,7.199,3.122
		c2.943,0,5.383-1.023,7.32-3.07c1.94-2.048,2.908-4.73,2.908-8.049c0-3.249-0.968-5.88-2.908-7.896
		C185.575,119.563,183.124,118.556,180.16,118.556z"/>
	<path fill-rule="evenodd" clip-rule="evenodd" fill="#F8EC27" d="M180.124,84.17c-15.011-5.256-28.626-1.141-41.825,6.115
		c-3.146,1.729-5.725,4.826-11.067,4.414c11.623-16.2,17.907-33.279,12.882-52.854c-0.308-0.195-0.364-0.443-0.165-0.748
		c14.133-6.908,29.083-9.631,44.737-8.723c2.815,0.164,6.374-0.521,6.264,3.975C190.541,53.003,190.433,69.748,180.124,84.17z"/>
	<path fill-rule="evenodd" clip-rule="evenodd" fill="#F8EC27" d="M91.513,95.492c-7.736-3.348-14.391-8.848-22.676-11.142
		c-9.863-2.727-19.662-3.879-29.508-0.067c-8.273-14.542-9.891-30.438-9.805-46.766c0.025-4.478,2.191-4.946,5.848-5.214
		c15.922-1.162,30.845,2.831,45.536,8.26c0.192,0.437,0.202,0.879,0.032,1.334c-5.351,15.13-1.977,29.161,5.441,42.653
		c1.906,3.467,4,6.824,6.006,10.228C92.103,95.026,91.812,95.262,91.513,95.492z"/>
	<path fill-rule="evenodd" clip-rule="evenodd" fill="#43C5F3" d="M80.94,41.897c0.17-0.455,0.16-0.897-0.032-1.334
		c4.511-15.315,14.626-26.816,25.545-37.831c3.535-3.568,5.638-1.795,8.438,0.952c10.961,10.753,19.317,23.19,25.058,37.413
		c-0.199,0.305-0.143,0.553,0.165,0.748c-18.933,9.013-25.656,26.124-29.89,45.482C105.336,68.676,99.023,51.438,80.94,41.897z"/>
</g>
</svg>
