<svg xmlns="http://www.w3.org/2000/svg" xmlns:xlink="http://www.w3.org/1999/xlink" viewBox="0 0 93.557 100.029">
  <defs>
    <style>
      .cls-1 {
        fill: none;
      }

      .cls-2 {
        fill: #2cc9ff;
      }

      .cls-3 {
        clip-path: url(#clip-path);
      }

      .cls-4, .cls-5 {
        fill-rule: evenodd;
      }

      .cls-5 {
        fill: #fff;
      }
    </style>
    <clipPath id="clip-path">
      <path id="Path_4659" data-name="Path 4659" class="cls-1" d="M0-382.961H93.557v89.029H0Z" transform="translate(0 382.961)"/>
    </clipPath>
  </defs>
  <g id="Group_5456" data-name="Group 5456" transform="translate(-254 -2421)">
    <circle id="Ellipse_212" data-name="Ellipse 212" class="cls-2" cx="18" cy="18" r="18" transform="translate(282 2421)"/>
    <g id="Group_5190" data-name="Group 5190" transform="translate(254 2432)">
      <g id="Group_5189" data-name="Group 5189" class="cls-3">
        <g id="Group_5173" data-name="Group 5173" transform="translate(12.838 8.34)">
          <path id="Path_4643" data-name="Path 4643" class="cls-4" d="M-252.628-236.578l-14.859-14.851-4.855,4.843,14.858,14.856,4.856-4.847m-18.132-40.932a27.643,27.643,0,0,0-27.625-27.534,27.643,27.643,0,0,0-27.565,27.712,27.65,27.65,0,0,0,27.684,27.476,27.656,27.656,0,0,0,27.506-27.654m-4.548,20.619,4.391,4.329c.609-.7,1.3-1.565,2.068-2.357,1.054-1.088,1.823-1.092,2.865-.052q8.391,8.374,16.765,16.765c1.057,1.058,1.055,1.809,0,2.872q-3.481,3.5-6.985,6.985c-1.086,1.08-1.863,1.072-2.965-.028q-8.306-8.294-16.6-16.6c-1.138-1.14-1.137-1.9.015-3.044.741-.734,1.522-1.427,2.239-2.1l-4.278-4.271c-13.133,11.949-33.846,9.658-44.581-3.753a30.867,30.867,0,0,1,2.482-41.33,30.877,30.877,0,0,1,41.284-1.635c13.08,10.884,15.064,31.14,3.3,44.215" transform="translate(329.147 308.236)"/>
        </g>
        <g id="Group_5174" data-name="Group 5174" transform="translate(16.035 11.53)">
          <path id="Path_4644" data-name="Path 4644" class="cls-5" d="M-62.211-149.994a1.6,1.6,0,0,0-1.541-1.67,1.626,1.626,0,0,0-1.676,1.55,1.609,1.609,0,0,0,1.562,1.646,1.527,1.527,0,0,0,1.655-1.526M-75.643-167.85a22.1,22.1,0,0,0,6,15.173c.238.252.488.65.763.678a3.358,3.358,0,0,0,1.906-.15,1.352,1.352,0,0,0,.31-1.96,5.6,5.6,0,0,0-.676-.791,18.79,18.79,0,0,1-4.23-18.473,17.875,17.875,0,0,1,4.545-7.721,1.5,1.5,0,0,0,.4-1.979,2.152,2.152,0,0,0-1.48-.852,2.348,2.348,0,0,0-1.432.835,21.88,21.88,0,0,0-6.1,15.241m49.779-.042A27.656,27.656,0,0,1-53.37-140.238a27.65,27.65,0,0,1-27.684-27.476,27.643,27.643,0,0,1,27.565-27.712,27.643,27.643,0,0,1,27.625,27.534" transform="translate(81.054 195.426)"/>
        </g>
        <g id="Group_5175" data-name="Group 5175" transform="translate(69.643 65.145)">
          <path id="Path_4645" data-name="Path 4645" class="cls-5" d="M-65.085-49.033l-4.856,4.847L-84.8-59.041l4.855-4.843,14.859,14.851" transform="translate(84.799 63.884)"/>
        </g>
        <g id="Group_5176" data-name="Group 5176" transform="translate(21.445 23.031)">
          <path id="Path_4646" data-name="Path 4646" class="cls-4" d="M0-53.073A21.883,21.883,0,0,1,6.1-68.314a2.346,2.346,0,0,1,1.432-.834,2.152,2.152,0,0,1,1.48.852,1.5,1.5,0,0,1-.4,1.979A17.878,17.878,0,0,0,4.069-58.6,18.79,18.79,0,0,0,8.3-40.122a5.6,5.6,0,0,1,.676.791,1.353,1.353,0,0,1-.31,1.96,3.358,3.358,0,0,1-1.906.15c-.275-.028-.525-.426-.763-.678A22.107,22.107,0,0,1,0-53.073" transform="translate(0 69.148)"/>
        </g>
        <g id="Group_5177" data-name="Group 5177" transform="translate(31.66 55.291)">
          <path id="Path_4647" data-name="Path 4647" class="cls-4" d="M-10.624-5.517a1.527,1.527,0,0,1-1.655,1.526,1.609,1.609,0,0,1-1.562-1.646,1.626,1.626,0,0,1,1.676-1.55,1.6,1.6,0,0,1,1.541,1.67" transform="translate(13.842 7.188)"/>
        </g>
        <g id="Group_5178" data-name="Group 5178" transform="translate(3.273 1.699)">
          <path id="Path_4648" data-name="Path 4648" class="cls-4" d="M-228.923-52.486c-9.4-12.231-21.814-17.642-37.054-15.4-16.568,2.433-29.528,15.37-31.9,32.789a36.219,36.219,0,0,0,7.352,27.88c8.307,10.788,19.385,15.9,33.057,15.109a37.4,37.4,0,0,0,4.675-.635c.282-.053.466-.629.7-.963-.344-.159-.7-.477-1.028-.447-1,.091-1.983.289-2.973.457a4.64,4.64,0,0,1-1.192.161,4.645,4.645,0,0,1-.874-.086,4.516,4.516,0,0,1-.869.086,4.65,4.65,0,0,1-1.065-.128h-2.091a4.654,4.654,0,0,1-.768.07,4.636,4.636,0,0,1-.864-.085c0,.025-.006.05-.009.075l-9.461-2.3v-.16a4.753,4.753,0,0,1-1.383-.559c-.125-.052-.249-.107-.369-.169v.033c-1.771-1.024-3.356-1.926-4.919-2.863a.4.4,0,0,1-.145-.2,4.868,4.868,0,0,1-1.252-.845,4.895,4.895,0,0,1-.682-.557c0,.027,0,.054,0,.081-.285-.166-.39-.211-.478-.28-14.391-11.234-18.333-31.751-8.939-47.232,6.249-10.3,15.391-16.472,27.428-17.731,13.576-1.419,24.626,3.533,33.149,14.167a9.152,9.152,0,0,0,1.087,1.35,1.049,1.049,0,0,0,1,.063,1.344,1.344,0,0,0,.284-.993c-.007-.232-.247-.471-.411-.684" transform="translate(298.262 68.384)"/>
        </g>
        <g id="Group_5179" data-name="Group 5179" transform="translate(18.178 4.025)">
          <path id="Path_4649" data-name="Path 4649" class="cls-4" d="M-3.864-9.559c-.564-.8-1.1-1.229-1.161-1.719a1,1,0,0,1,1.237-1.144,1.707,1.707,0,0,1,1.07,1.193c.03.423-.577.891-1.146,1.67" transform="translate(5.035 12.455)"/>
        </g>
        <g id="Group_5180" data-name="Group 5180" transform="translate(10.04 10.606)">
          <path id="Path_4650" data-name="Path 4650" class="cls-4" d="M-8.494-4.433c-.437.336-.888.953-1.307.932a1.7,1.7,0,0,1-1.231-1.026.989.989,0,0,1,1.126-1.24c.492.058.933.546,1.4.841q.007.247.014.493" transform="translate(11.067 5.776)"/>
        </g>
        <g id="Group_5181" data-name="Group 5181" transform="translate(27.904 0)">
          <path id="Path_4651" data-name="Path 4651" class="cls-4" d="M-2.485-8.246c-.273-.464-.814-.972-.747-1.379a1.694,1.694,0,0,1,1.124-1.1A.952.952,0,0,1-.993-9.506c-.1.476-.615.864-.944,1.291l-.548-.031" transform="translate(3.238 10.744)"/>
        </g>
        <g id="Group_5182" data-name="Group 5182" transform="translate(13.917 7.069)">
          <path id="Path_4652" data-name="Path 4652" class="cls-4" d="M-8.34-4.366c-.431.332-.826.862-1.3.949a.966.966,0,0,1-1.2-1.143A1.706,1.706,0,0,1-9.73-5.684c.409-.06.908.5,1.368.792Z" transform="translate(10.867 5.689)"/>
        </g>
        <g id="Group_5183" data-name="Group 5183" transform="translate(22.874 1.706)">
          <path id="Path_4653" data-name="Path 4653" class="cls-4" d="M-8.443-4.4c-.441.329-.844.85-1.33.942a.981.981,0,0,1-1.207-1.156A1.706,1.706,0,0,1-9.831-5.729c.415-.053.911.525,1.372.825l.017.5" transform="translate(11 5.733)"/>
        </g>
        <g id="Group_5184" data-name="Group 5184" transform="translate(4.039 19.141)">
          <path id="Path_4654" data-name="Path 4654" class="cls-4" d="M-4.077-9.169C-4.667-9.9-5.23-10.3-5.3-10.76a.991.991,0,0,1,1.22-1.155A1.819,1.819,0,0,1-3.007-10.7c.068.332-.532.8-1.07,1.528" transform="translate(5.311 11.947)"/>
        </g>
        <g id="Group_5185" data-name="Group 5185" transform="translate(6.744 14.666)">
          <path id="Path_4655" data-name="Path 4655" class="cls-4" d="M-8.338-4.924c-.461.284-.963.841-1.371.779a1.7,1.7,0,0,1-1.134-1.113A.977.977,0,0,1-9.625-6.394c.478.09.874.607,1.307.933q-.01.268-.02.536" transform="translate(10.863 6.416)"/>
        </g>
        <g id="Group_5186" data-name="Group 5186" transform="translate(0 34.32)">
          <path id="Path_4656" data-name="Path 4656" class="cls-4" d="M-7.99-4.247c-.47.333-.914.885-1.417.946a.95.95,0,0,1-.969-1.254A1.622,1.622,0,0,1-9.255-5.53c.373-.051.823.464,1.239.728q.013.277.026.554" transform="translate(10.41 5.533)"/>
        </g>
        <g id="Group_5187" data-name="Group 5187" transform="translate(2.173 24.011)">
          <path id="Path_4657" data-name="Path 4657" class="cls-4" d="M-8.76-3.27c-.775.543-1.2,1.043-1.693,1.11-.295.04-1.018-.688-.957-.906a1.818,1.818,0,0,1,1.016-1.186c.352-.083.859.487,1.633.982" transform="translate(11.414 4.26)"/>
        </g>
        <g id="Group_5188" data-name="Group 5188" transform="translate(0.692 28.629)">
          <path id="Path_4658" data-name="Path 4658" class="cls-4" d="M-3.744,0c.5.8,1.035,1.272.984,1.671A1.479,1.479,0,0,1-3.817,2.678c-.378,0-1.07-.644-1.06-.99.013-.46.571-.905,1.134-1.688" transform="translate(4.877)"/>
        </g>
      </g>
    </g>
  </g>
</svg>
