<svg xmlns="http://www.w3.org/2000/svg" xmlns:xlink="http://www.w3.org/1999/xlink" viewBox="0 0 902.451 648.262">
  <defs>
    <style>
      .cls-1, .cls-2 {
        fill: none;
      }

      .cls-2 {
        stroke: #2a2a2a;
        stroke-width: 4px;
      }

      .cls-3 {
        fill: #def2f9;
      }

      .cls-4, .cls-5 {
        fill: #101010;
      }

      .cls-4 {
        font-size: 36px;
        font-family: Montserrat-SemiBold, Montserrat;
        font-weight: 600;
      }

      .cls-5 {
        font-size: 22px;
        font-family: Montserrat-Regular, Montserrat;
      }

      .cls-6, .cls-9 {
        fill: #fff;
      }

      .cls-6 {
        stroke: #000;
        stroke-width: 3px;
      }

      .cls-7 {
        clip-path: url(#clip-path);
      }

      .cls-8, .cls-9 {
        fill-rule: evenodd;
      }

      .cls-10 {
        stroke: none;
      }

      .cls-11 {
        filter: url(#Rectangle_1270);
      }
    </style>
    <filter id="Rectangle_1270" x="0" y="111.169" width="902.451" height="537.093" filterUnits="userSpaceOnUse">
      <feOffset dy="3" input="SourceAlpha"/>
      <feGaussianBlur stdDeviation="3" result="blur"/>
      <feFlood flood-opacity="0.161"/>
      <feComposite operator="in" in2="blur"/>
      <feComposite in="SourceGraphic"/>
    </filter>
    <clipPath id="clip-path">
      <path id="Path_4477" data-name="Path 4477" class="cls-1" d="M0-546.662H292.082v193.878H0Z" transform="translate(0 546.662)"/>
    </clipPath>
  </defs>
  <g id="Group_5453" data-name="Group 5453" transform="translate(-509 -161.784)">
    <g id="Group_5450" data-name="Group 5450">
      <g id="Group_5446" data-name="Group 5446">
        <g class="cls-11" transform="matrix(1, 0, 0, 1, 509, 161.78)">
          <g id="Rectangle_1270-2" data-name="Rectangle 1270" class="cls-2" transform="translate(9 117.17)">
            <rect class="cls-10" width="884.451" height="519.093"/>
            <rect class="cls-1" x="2" y="2" width="880.451" height="515.093"/>
          </g>
        </g>
        <rect id="Rectangle_1271" data-name="Rectangle 1271" class="cls-3" width="737.526" height="379.123" rx="4" transform="translate(591 341.316)"/>
        <text id="Hi_Shri_Welcome_to_Zariya" data-name="Hi Shri,
Welcome to Zariya" class="cls-4" transform="translate(793.022 380.398)"><tspan x="107.159" y="35">Hi Shri,</tspan><tspan x="2.255" y="79">Welcome to Zariya</tspan></text>
        <text id="Know_your_impact_as_you_travel_along_your_journey_with_us._You_will_be_able_to_explore_donate_and_engage_on_this_platform_and_be_a_proud_Zariya." data-name="Know your impact as you travel along your journey with us. You will be able to explore, donate and engage on this platform and be a proud Zariya." class="cls-5" transform="translate(660.022 509.784)"><tspan x="0.707" y="21">Know your impact as you travel along your journey with </tspan><tspan x="11.685" y="56">us. You will be able to explore, donate and engage on </tspan><tspan x="105.504" y="91">this platform and be a proud Zariya.</tspan></text>
        <path id="Path_4543" data-name="Path 4543" class="cls-6" d="M-3702.74,352.962s-9.658,6.758-10.753,0-.875-25.337,1.833-34.475,10.561-10.589,16.034-10.589,18.442-1.094,20.986,0,7.661,1.5,9.85,5.308,4.35,3.256,6.922,11.656,0,26.075,0,26.075l-9.111,2.025Z" transform="translate(4650.022 -64)"/>
        <g id="Group_4793" data-name="Group 4793" transform="translate(814.022 161.784)">
          <g id="Group_4792" data-name="Group 4792" class="cls-7">
            <g id="Group_4729" data-name="Group 4729" transform="translate(75.911 36.216)">
              <path id="Path_4414" data-name="Path 4414" class="cls-8" d="M-135.386-214.944c-.7,1.206-1.221,2.117-1.746,3.029-.088.152-.179.3-.253.464a3.37,3.37,0,0,0,1.094,3.91,2.269,2.269,0,0,0,1.994-.085,3.126,3.126,0,0,0,.879-3.894c-.594-1.061-1.212-2.109-1.969-3.424m.661,10.548-.61-.171a7,7,0,0,0-.621,1.526c-.54,3.492-1.033,6.99-1.531,10.488-.387,2.719-.758,5.44-1.164,8.367h6.576c-.9-6.836-1.773-13.523-2.65-20.21m-2.368-12.952-12.326-9.684a16.759,16.759,0,0,1-.98,2.644c-.873,1.5-.515,2.673.431,4.021,2.407,3.428,4.664,6.962,6.99,10.447.277.415.605.794,1,1.308l4.885-8.736m15.422-9.659-12.015,9.658,4.966,8.792c2.392-3.669,4.446-7.249,6.935-10.5,1.892-2.47,2.318-4.689.553-7.262-.1-.141-.183-.288-.438-.691m-3.542-3.832c-6.979,4.1-13.894,3.94-21-.055.2,1.441.3,3.049,1.155,3.824,2.7,2.448,5.7,4.557,8.533,6.859a1.48,1.48,0,0,0,2.264-.016c2.471-2.093,4.925-4.233,7.583-6.071,1.744-1.205,1.874-2.593,1.47-4.542m-28.539-29.378a26.9,26.9,0,0,0,8.175-13,8.206,8.206,0,0,1,1.377-2.055,9.994,9.994,0,0,1,1.875,1.414,28.51,28.51,0,0,0,16.636,10.071,23.626,23.626,0,0,0,8.931.221c-.2-1.529-.277-2.884-.56-4.195-1.218-5.632-5.705-11.662-13.834-11.19-3.181.185-6.382.05-9.574.025a11.694,11.694,0,0,0-9.445,4.43c-3.426,4.076-4.046,8.871-3.581,14.279m14.073,52.979c-.18.281-.339.512-.482.752-1.456,2.437-2.051,2.447-3.658.034-3.04-4.566-6.093-9.124-9.09-13.718a2.2,2.2,0,0,0-2.309-1.125c-10.907.828-19.009,9.03-20.235,19.976-.381,3.4.41,5.33,3.506,6.671,2.723,1.18,5.283,2.735,8.152,4.249,0-2.658.013-4.9-.006-7.132-.008-.979.2-1.971,1.335-1.8.487.073,1.131,1.11,1.174,1.745a58.635,58.635,0,0,1,.028,6.549c-.054,1.189.262,1.857,1.464,2.18,4.661,1.249,9.294,2.608,13.966,3.813a34.88,34.88,0,0,0,4.559.565c.926-6.507,1.787-12.751,2.723-18.984.211-1.4.381-2.693-1.127-3.775m32.719,18.219c2.495-1.138,4.656-2.06,6.762-3.1,4.94-2.433,4.929-2.456,4.842-7.9a21.574,21.574,0,0,0-19.97-21.266,2.8,2.8,0,0,0-3,1.512c-2.861,4.545-5.829,9.022-8.759,13.523-1.354,2.08-2.146,2.072-3.373-.011a8.23,8.23,0,0,0-.69-.882l-.563.048a13.3,13.3,0,0,0-.306,2.909c.479,4.28,1.064,8.548,1.629,12.818.314,2.372.664,4.739,1.008,7.185a71.279,71.279,0,0,0,18.9-3.722,2.024,2.024,0,0,0,.914-1.56c.092-2.655.054-5.314.03-7.972-.009-.95.05-1.931,1.234-1.959,1.328-.031,1.341,1.054,1.341,2.038,0,2.648,0,5.3,0,8.333m-10.024-71.808a29.571,29.571,0,0,1-14.5-1.854,32.363,32.363,0,0,1-11.992-8.386,29.1,29.1,0,0,1-9.855,13.9,1.524,1.524,0,0,0-.514,1.025c-.222,5.183.182,10.243,2.585,15,6.246,12.367,20.68,14.292,29.231,3.879,5.711-6.956,5.4-15.154,5.047-23.561m-61.232,61.8c.211-1.768.326-3.394.61-4.989A23.934,23.934,0,0,1-154.793-223.9a1.809,1.809,0,0,0,1.987-1.492c.313-1.074.806-2.1,1.134-3.166.434-1.423,1.059-2.43,2.783-1.555a4.963,4.963,0,0,0-1.311-4.924,24.381,24.381,0,0,1-6.25-16,141.674,141.674,0,0,1,.2-15.584,16.091,16.091,0,0,1,12.1-14.527,20.6,20.6,0,0,1,4.221-.329c3.073-.046,6.153.109,9.219-.037,8.269-.393,13.389,5.385,15.2,10.746a17.694,17.694,0,0,1,1.12,5.161c.138,6.715.842,13.469-.75,20.118A22.632,22.632,0,0,1-121-234.547a4.538,4.538,0,0,0-1.219,4.479c1.558-.9,2.41-.116,2.737,1.283.861,3.681,3.073,4.869,6.867,5.351,10.9,1.384,19.459,11.422,19.805,22.422.044,1.4.006,2.807.006,4.628,1.445-1.036,2.64-1.833,3.772-2.712a69.908,69.908,0,0,0,21.274-26.571c2-4.426,3.333-9.153,4.962-13.746.138-.388.089-.92.341-1.171A8.45,8.45,0,0,1-60.9-241.6c.238.551.771,1.164.672,1.645a70.261,70.261,0,0,1-16.012,32.082c-13.66,15.849-31.061,24.731-51.839,26.337a75.358,75.358,0,0,1-74.248-43.018,80.3,80.3,0,0,1-6.138-19.3c-7.208-36.725,15.67-76.33,55.566-86.763a75.567,75.567,0,0,1,40.769.727c.944.273,2.03.706,1.446,1.881a2.43,2.43,0,0,1-2.177.6c-13.809-3.949-27.7-4.338-41.41-.049-26.263,8.215-43.194,25.776-50.568,52.295a68.9,68.9,0,0,0-.762,32.825c3.637,17.513,12.733,31.658,26.6,42.826a8.666,8.666,0,0,0,.788.482" transform="translate(209.789 333.07)"/>
            </g>
            <g id="Group_4730" data-name="Group 4730" transform="translate(175.123 7)">
              <path id="Path_4415" data-name="Path 4415" class="cls-8" d="M-104.356-166.495a8.177,8.177,0,0,0-1.3,2.512,4.9,4.9,0,0,0,.811,2.331,1.2,1.2,0,0,0,1.034-.043,3.886,3.886,0,0,0,.859-2.124,9.56,9.56,0,0,0-1.407-2.676m.322,8.35-.426-.024-2.042,14.315h4.325c-.328-2.5-.636-4.827-.938-7.157q-.463-3.566-.919-7.134m-7.939-20.681-.558.344a6.9,6.9,0,0,0,1.137,2.031c1.921,1.651,3.982,3.137,5.94,4.747.75.617,1.277.773,2.105.054,1.868-1.623,3.887-3.073,5.746-4.707a6.712,6.712,0,0,0,1.088-2l-.414-.326a14.847,14.847,0,0,1-15.044-.139m17.96,3.008-8.647,6.967,3.448,6.054c1.841-2.821,3.409-5.537,5.3-8.009,1.342-1.758,1.269-3.218-.1-5.011m-12.037,6.965-9.134-7.17c-.261,1.481-.988,2.893-.559,3.644,1.859,3.251,4.057,6.31,6.253,9.622l3.44-6.1m15.926-35.317c-.527-2.35-.826-4.2-1.367-5.982-.871-2.869-4.8-5.66-7.792-5.673-3.009-.013-6.023.12-9.024-.04-6.621-.353-11.018,7.082-9.644,13.155a20.5,20.5,0,0,0,5.583-9.485c.154-.536.659-1.248,1.113-1.342a2.017,2.017,0,0,1,1.567.774,22.624,22.624,0,0,0,12.1,7.865c2.242.637,4.707.486,7.469.727M-107.287-160.4c-1.9,2.026-2.446,2.011-3.909-.177q-2.607-3.9-5.2-7.811c-2.538-3.816-2.861-3.928-7.262-2.47a13.566,13.566,0,0,0-1.322.5,17.056,17.056,0,0,0-10,16.194c.01.268.1.664.29.774,2.6,1.538,5.231,3.037,8.182,4.735,0-1.626-.066-2.688.018-3.738.093-1.172-.593-3.051,1.409-2.988,1.8.057,1.223,1.849,1.236,2.98.057,4.927.009,5,4.737,6.342,3.194.907,6.455,1.574,9.937,2.408.7-5.941,1.844-11.277,1.881-16.752m5.59-.353,2.16,16.827c3.154.113,11.167-1.377,13.86-2.625a1.736,1.736,0,0,0,.815-1.26c.091-1.886.046-3.78.04-5.671,0-.931.032-1.926,1.248-1.951,1.355-.028,1.336,1.044,1.331,2.028-.009,1.8,0,3.6,0,5.762,2-.95,3.65-1.871,5.4-2.522,2.335-.871,2.981-2.376,2.934-4.837-.17-8.884-6.048-15.613-14.754-16.633a2.181,2.181,0,0,0-2.444,1.181c-2.127,3.4-4.349,6.748-6.553,10.1-1.208,1.839-1.782,1.857-3.11.182a5.893,5.893,0,0,0-.922-.584m-8.745-48.819a23.075,23.075,0,0,1-7,9.944,2.242,2.242,0,0,0-.755,1.454,20.581,20.581,0,0,0,1.635,10.192c2.3,4.744,5.8,8.094,11.258,8.592,4.982.454,8.754-1.945,11.591-5.86,3.635-5.017,3.515-10.766,3.169-16.69a23.969,23.969,0,0,1-19.9-7.632m39.368,55.608c13.517-8.409,30.3-32.229,21.325-61.923a55.639,55.639,0,0,0-53.83-39.489,55.73,55.73,0,0,0-54.2,43.822c-5.291,23.541,5.746,45.634,20.339,55.953.066-.573.138-1.081.179-1.59a18.616,18.616,0,0,1,16.716-16.972c1.767-.156,2.571-.681,3.028-2.36.357-1.313.545-3.055,3.089-2.849a14.133,14.133,0,0,0-1.381-2.679,17.826,17.826,0,0,1-4.7-10.307,99.381,99.381,0,0,1-.212-13.975c.414-6.271,5.089-12.689,13.6-12.216a49.609,49.609,0,0,0,4.963,0c4.221-.19,7.905.768,10.734,4.234a14.8,14.8,0,0,1,3.484,8.836c.141,2.939-.076,5.9.032,8.838a20.483,20.483,0,0,1-5.31,14.947,8.82,8.82,0,0,0-1.046,2.132l.682-.079a15.22,15.22,0,0,1,1.715,1.853,9.419,9.419,0,0,1,1.008,2.257,1.687,1.687,0,0,0,1.793,1.291,18.513,18.513,0,0,1,17.09,14.07,60.211,60.211,0,0,1,.9,6.2m-32.137-104.029A58.4,58.4,0,0,1-45.09-206.069c1.813,18.413-3.564,34.429-16.511,47.663a56.148,56.148,0,0,1-42.191,17.414A58.386,58.386,0,0,1-161.707-199.5a58.475,58.475,0,0,1,58.5-58.494" transform="translate(161.707 257.994)"/>
            </g>
            <g id="Group_4731" data-name="Group 4731" transform="translate(4.993 17.807)">
              <path id="Path_4416" data-name="Path 4416" class="cls-8" d="M-104.018-165.068c-.548,1.009-1.172,1.662-1.2,2.342a5.6,5.6,0,0,0,.76,2.369c.054.117.947.082,1.032-.09a4.367,4.367,0,0,0,.682-2.19,8.461,8.461,0,0,0-1.271-2.431m.362,8.069-.43,0c-.711,4.992-1.423,9.984-2.166,15.2h4.573c-.678-5.207-1.328-10.2-1.978-15.2m-7.888-20.22c-.166,1.881,3.356,5.293,7.686,7.661,2.181-1.759,4.417-3.491,6.553-5.34.464-.4.567-1.22.836-1.847-5.294,2.365-10.139,2.316-15.075-.474m5.822,9.8-8.571-6.73c-.987,1.654-1.491,3.054-.107,4.7a55.028,55.028,0,0,1,3.266,4.815c.663.987,1.342,1.962,2.122,3.1l3.291-5.886m15.365-35.025c-.328-4.348-1.661-7.84-5.416-9.987-2.433-1.392-13.764-1.316-16.308-.133-3.758,1.747-6.422,7.8-5.291,11.929a20.178,20.178,0,0,0,5.271-8.459,12.429,12.429,0,0,1,1.375-2.216,13.061,13.061,0,0,1,2.138,1.587,21.182,21.182,0,0,0,18.232,7.28m-16.153,43.46-.683-.06c-1.674,1.948-2.123,1.912-3.615-.329-2.028-3.047-4.148-6.041-6.025-9.179a2.845,2.845,0,0,0-3.325-1.5,16.117,16.117,0,0,0-13.491,18.236c.05.327.145.788.376.926,2.385,1.43,4.8,2.806,7.5,4.368,0-2.188,0-3.838,0-5.488,0-1.015-.114-2.219,1.309-2.263,1.464-.045,1.365,1.163,1.365,2.182,0,2.167,0,4.334,0,6.873l14.434,3.514c.761-6.11,1.456-11.693,2.151-17.276m-3.449-48.257a22.908,22.908,0,0,1-7.145,9.917,1.548,1.548,0,0,0-.506,1.024c-.227,4.712.524,9.174,3.41,13.084,4.918,6.66,13.3,7.38,19.014,1.583,5.025-5.1,5.074-11.5,4.7-18.132a23.844,23.844,0,0,1-19.472-7.475m-26.487,54.031a19.2,19.2,0,0,1,2.73-10.679,17.689,17.689,0,0,1,14.031-8.741,2.668,2.668,0,0,0,2.705-2.114c.415-1.237.378-3,2.923-2.957a12.514,12.514,0,0,0-1.261-2.684,19.174,19.174,0,0,1-4.818-12.469c-.012-4.525.156-9.067.57-13.572.4-4.382,5.765-9.789,10.94-9.671,3.072.07,6.15-.083,9.219.041A11.923,11.923,0,0,1-88.069-204.9a87.323,87.323,0,0,1-.13,14.672A16.626,16.626,0,0,1-93.212-179.9a2.108,2.108,0,0,0-.351,2.983c1.227,1.353.556,2.037-.481,2.857-2.408,1.906-4.8,3.834-7.2,5.758-.318.256-.618.535-1.037.9l3.292,5.884c.973-1.491,1.8-2.768,2.639-4.042.513-.782,1.114-1.534,2.144-.893s.632,1.479.1,2.283c-1.013,1.525-1.994,3.071-3,4.6-1.637,2.5-1.826,2.518-4.093.222a15.231,15.231,0,0,0,.008,1.707c.633,4.777,1.362,9.542,1.887,14.33.17,1.549.889,1.714,2.095,1.516,1.624-.266,3.242-.608,4.876-.756.5-.045,1.044.44,1.568.682-.35.51-.631,1.389-1.061,1.469a57.056,57.056,0,0,1-7.133.969c-20.857,1.2-37.758-6.592-50.43-23.05A55.255,55.255,0,0,1-160.6-205.009c3.622-26.574,23.394-46.309,48.67-50.022,23.25-3.415,42.186,4.841,56.528,23.5.25.326.618.689.628,1.044a2.049,2.049,0,0,1-.434,1.515,1.6,1.6,0,0,1-1.53-.1,13.949,13.949,0,0,1-1.658-2.059c-13-16.223-29.86-23.779-50.571-21.613-18.364,1.92-32.31,11.339-41.844,27.049-14.332,23.617-8.318,54.916,13.637,72.055.134.1.294.175.729.427" transform="translate(161.183 255.784)"/>
            </g>
            <g id="Group_4732" data-name="Group 4732" transform="translate(212.091 162.896)">
              <path id="Path_4417" data-name="Path 4417" class="cls-8" d="M-4.007-.019C-3.532.675-2.629,1.417-2.7,2.049A2.6,2.6,0,0,1-4.366,3.854,1.539,1.539,0,0,1-6.183,2.029c.126-.745.926-1.376,1.424-2.058Z" transform="translate(6.209 0.029)"/>
            </g>
            <g id="Group_4733" data-name="Group 4733" transform="translate(27.732 21.355)">
              <path id="Path_4418" data-name="Path 4418" class="cls-8" d="M-3.249-8.038c-.86-1.216-1.68-1.874-1.772-2.622A1.527,1.527,0,0,1-3.134-12.4,2.6,2.6,0,0,1-1.5-10.585c.046.645-.88,1.359-1.748,2.548" transform="translate(5.035 12.455)"/>
            </g>
            <g id="Group_4734" data-name="Group 4734" transform="translate(171.841 188.066)">
              <path id="Path_4419" data-name="Path 4419" class="cls-8" d="M-8.049-3.387c-1.257.809-1.933,1.573-2.676,1.646A1.485,1.485,0,0,1-12.4-3.656a2.627,2.627,0,0,1,1.86-1.591c.638-.028,1.319.931,2.493,1.861" transform="translate(12.472 5.248)"/>
            </g>
            <g id="Group_4735" data-name="Group 4735" transform="translate(15.316 31.394)">
              <path id="Path_4420" data-name="Path 4420" class="cls-8" d="M-7.142-3.727C-7.808-3.214-8.5-2.273-9.136-2.3A2.59,2.59,0,0,1-11.014-3.87,1.508,1.508,0,0,1-9.3-5.762c.75.089,1.423.833,2.131,1.283q.011.376.022.752" transform="translate(11.067 5.776)"/>
            </g>
            <g id="Group_4736" data-name="Group 4736" transform="translate(42.57 15.215)">
              <path id="Path_4421" data-name="Path 4421" class="cls-8" d="M-2.089-6.933c-.417-.707-1.242-1.482-1.14-2.1a2.585,2.585,0,0,1,1.715-1.676,1.452,1.452,0,0,1,1.7,1.857c-.156.726-.938,1.318-1.44,1.97l-.837-.047" transform="translate(3.238 10.744)"/>
            </g>
            <g id="Group_4737" data-name="Group 4737" transform="translate(206.579 169.085)">
              <path id="Path_4422" data-name="Path 4422" class="cls-8" d="M-8.009-2.892c-1.169.905-1.774,1.712-2.519,1.872a1.51,1.51,0,0,1-1.861-1.749,2.559,2.559,0,0,1,1.726-1.707c.64-.082,1.4.788,2.654,1.584" transform="translate(12.41 4.481)"/>
            </g>
            <g id="Group_4738" data-name="Group 4738" transform="translate(186.888 182.584)">
              <path id="Path_4423" data-name="Path 4423" class="cls-8" d="M-6.967-4.094c-.694.439-1.445,1.292-2.066,1.206a2.585,2.585,0,0,1-1.725-1.673A1.462,1.462,0,0,1-8.945-6.312c.727.132,1.339.9,2,1.385q-.012.417-.024.833" transform="translate(10.796 6.344)"/>
            </g>
            <g id="Group_4739" data-name="Group 4739" transform="translate(148.025 190.291)">
              <path id="Path_4424" data-name="Path 4424" class="cls-8" d="M-8.105-3.135c-1.219.854-1.874,1.653-2.628,1.762a1.517,1.517,0,0,1-1.783-1.845A2.588,2.588,0,0,1-10.7-4.857c.66-.045,1.386.866,2.6,1.722" transform="translate(12.56 4.859)"/>
            </g>
            <g id="Group_4740" data-name="Group 4740" transform="translate(270.286 12.897)">
              <path id="Path_4425" data-name="Path 4425" class="cls-8" d="M-6.889-4.392c-.722.4-1.534,1.228-2.143,1.1a2.62,2.62,0,0,1-1.626-1.812A1.487,1.487,0,0,1-8.726-6.751c.719.177,1.277,1.009,1.907,1.547Z" transform="translate(10.675 6.806)"/>
            </g>
            <g id="Group_4741" data-name="Group 4741" transform="translate(224.808 142.927)">
              <path id="Path_4426" data-name="Path 4426" class="cls-8" d="M-7.04-4.193c-.7.436-1.363,1.147-2.106,1.242A1.539,1.539,0,0,1-10.908-4.68c.016-1.218.788-1.976,1.9-1.789.727.123,1.337.942,2,1.449Z" transform="translate(10.909 6.497)"/>
            </g>
            <g id="Group_4742" data-name="Group 4742" transform="translate(217.021 156.969)">
              <path id="Path_4427" data-name="Path 4427" class="cls-8" d="M-7.019-4.024c-.694.449-1.357,1.2-2.089,1.278a1.5,1.5,0,0,1-1.707-1.89,2.622,2.622,0,0,1,1.843-1.6c.623-.044,1.315.894,1.978,1.4-.008.27-.017.54-.025.81" transform="translate(10.876 6.235)"/>
            </g>
            <g id="Group_4743" data-name="Group 4743" transform="translate(200.441 173.325)">
              <path id="Path_4428" data-name="Path 4428" class="cls-8" d="M-3.461,0c.812,1.225,1.7,1.978,1.633,2.629A2.586,2.586,0,0,1-3.537,4.362,1.492,1.492,0,0,1-5.329,2.546C-5.185,1.8-4.362,1.177-3.461,0" transform="translate(5.363)"/>
            </g>
            <g id="Group_4744" data-name="Group 4744" transform="translate(209.195 4.063)">
              <path id="Path_4429" data-name="Path 4429" class="cls-8" d="M-.035-2.321c.692-.462,1.439-1.35,2.062-1.27A2.627,2.627,0,0,1,3.77-1.9,1.5,1.5,0,0,1,1.963-.1C1.238-.2.615-1.016-.054-1.514l.019-.807" transform="translate(0.054 3.596)"/>
            </g>
            <g id="Group_4745" data-name="Group 4745" transform="translate(248.867 2.382)">
              <path id="Path_4430" data-name="Path 4430" class="cls-8" d="M-7.057-3.871c-.672.476-1.29,1.213-2.029,1.364a1.513,1.513,0,0,1-1.847-1.612c-.047-1.176.567-2.043,1.771-1.855.744.116,1.394.828,2.086,1.273Z" transform="translate(10.935 5.999)"/>
            </g>
            <g id="Group_4746" data-name="Group 4746" transform="translate(193.917 178.708)">
              <path id="Path_4431" data-name="Path 4431" class="cls-8" d="M-2.408-7.056c-.456-.686-1.2-1.33-1.3-2.066A1.47,1.47,0,0,1-1.9-10.883,2.605,2.605,0,0,1-.287-9.074c.066.622-.817,1.345-1.282,2.024l-.838-.006" transform="translate(3.731 10.933)"/>
            </g>
            <g id="Group_4747" data-name="Group 4747" transform="translate(179.492 185.375)">
              <path id="Path_4432" data-name="Path 4432" class="cls-8" d="M-3.9,0c.484.672,1.237,1.289,1.389,2.03A1.535,1.535,0,0,1-4.13,3.894c-1.179.051-2.033-.656-1.9-1.792.085-.736.861-1.393,1.327-2.086L-3.9,0" transform="translate(6.045)"/>
            </g>
            <g id="Group_4748" data-name="Group 4748" transform="translate(233.028 0)">
              <path id="Path_4433" data-name="Path 4433" class="cls-8" d="M-7.042-4.158c-.7.453-1.458,1.337-2.073,1.244a2.631,2.631,0,0,1-1.771-1.708A1.55,1.55,0,0,1-9.03-6.417c.732.124,1.346.949,2.012,1.46l-.024.8" transform="translate(10.913 6.442)"/>
            </g>
            <g id="Group_4749" data-name="Group 4749" transform="translate(21.231 25.999)">
              <path id="Path_4434" data-name="Path 4434" class="cls-8" d="M-7.013-3.671C-7.67-3.165-8.272-2.357-9-2.223a1.473,1.473,0,0,1-1.833-1.744,2.6,2.6,0,0,1,1.7-1.715c.623-.091,1.386.768,2.087,1.209Z" transform="translate(10.867 5.689)"/>
            </g>
            <g id="Group_4750" data-name="Group 4750" transform="translate(276.319 17.289)">
              <path id="Path_4435" data-name="Path 4435" class="cls-8" d="M-3.341,0C-2.506,1.216-1.6,1.957-1.666,2.6A2.593,2.593,0,0,1-3.345,4.385,1.533,1.533,0,0,1-5.151,2.558c.127-.745.935-1.373,1.81-2.558" transform="translate(5.177)"/>
            </g>
            <g id="Group_4751" data-name="Group 4751" transform="translate(221.294 150.124)">
              <path id="Path_4436" data-name="Path 4436" class="cls-8" d="M-6.98-4.157c-.7.451-1.456,1.331-2.069,1.237a2.651,2.651,0,0,1-1.728-1.725A1.5,1.5,0,0,1-8.943-6.419c.72.111,1.331.932,1.991,1.435q-.013.413-.027.827" transform="translate(10.816 6.442)"/>
            </g>
            <g id="Group_4752" data-name="Group 4752" transform="translate(34.896 17.817)">
              <path id="Path_4437" data-name="Path 4437" class="cls-8" d="M-7.1-3.7c-.672.5-1.288,1.3-2.028,1.437a1.5,1.5,0,0,1-1.841-1.764,2.6,2.6,0,0,1,1.751-1.7c.634-.081,1.39.8,2.093,1.258l.026.77" transform="translate(11 5.733)"/>
            </g>
            <g id="Group_4753" data-name="Group 4753" transform="translate(202.17 7.27)">
              <path id="Path_4438" data-name="Path 4438" class="cls-8" d="M-7.079-4.1c-.7.448-1.371,1.187-2.115,1.274-1.149.133-1.858-.712-1.768-1.895A1.537,1.537,0,0,1-9.07-6.3c.744.177,1.353.927,2.022,1.42Z" transform="translate(10.97 6.349)"/>
            </g>
            <g id="Group_4754" data-name="Group 4754" transform="translate(256.433 5.025)">
              <path id="Path_4439" data-name="Path 4439" class="cls-8" d="M-7.017-3.667C-7.673-3.171-8.27-2.389-9-2.243A1.452,1.452,0,0,1-10.84-3.955a2.608,2.608,0,0,1,1.7-1.72c.619-.1,1.387.753,2.09,1.186q.019.411.036.822" transform="translate(10.874 5.683)"/>
            </g>
            <g id="Group_4755" data-name="Group 4755" transform="translate(240.726 0.702)">
              <path id="Path_4440" data-name="Path 4440" class="cls-8" d="M0-2.69C.654-3.2,1.251-4,1.973-4.136a1.489,1.489,0,0,1,1.855,1.73A2.6,2.6,0,0,1,2.124-.7C1.507-.6.738-1.439.036-1.864Q.018-2.277,0-2.69" transform="translate(0 4.168)"/>
            </g>
            <g id="Group_4756" data-name="Group 4756" transform="translate(225.142 0.037)">
              <path id="Path_4441" data-name="Path 4441" class="cls-8" d="M-3.613,0C-3.1.664-2.3,1.268-2.145,2.005a1.477,1.477,0,0,1-1.74,1.841A2.575,2.575,0,0,1-5.592,2.14c-.086-.638.769-1.4,1.21-2.111L-3.613,0" transform="translate(5.598)"/>
            </g>
            <g id="Group_4757" data-name="Group 4757" transform="translate(156.025 190.337)">
              <path id="Path_4442" data-name="Path 4442" class="cls-8" d="M-7.066-3.768c-.659.5-1.26,1.27-1.991,1.426-1.177.251-1.878-.6-1.891-1.753-.013-1.076.632-1.9,1.741-1.717a7.012,7.012,0,0,1,2.114,1.22q.014.412.028.825" transform="translate(10.949 5.839)"/>
            </g>
            <g id="Group_4758" data-name="Group 4758" transform="translate(263.57 8.505)">
              <path id="Path_4443" data-name="Path 4443" class="cls-8" d="M-7.115-3.918c-.686.472-1.414,1.365-2.047,1.3a2.589,2.589,0,0,1-1.829-1.617A1.511,1.511,0,0,1-9.2-6.046c.749.125,1.392.892,2.082,1.37Z" transform="translate(11.026 6.072)"/>
            </g>
            <g id="Group_4759" data-name="Group 4759" transform="translate(227.703 135.458)">
              <path id="Path_4444" data-name="Path 4444" class="cls-8" d="M-2.1-6.917c-.419-.7-1.249-1.467-1.146-2.077a2.589,2.589,0,0,1,1.7-1.694A1.464,1.464,0,0,1,.168-8.844c-.147.72-.937,1.309-1.438,1.957l-.831-.03" transform="translate(3.256 10.718)"/>
            </g>
            <g id="Group_4760" data-name="Group 4760" transform="translate(6.162 44.416)">
              <path id="Path_4445" data-name="Path 4445" class="cls-8" d="M-3.428-7.71c-.9-1.12-1.76-1.718-1.864-2.427A1.512,1.512,0,0,1-3.431-11.9,2.775,2.775,0,0,1-1.8-10.041c.1.506-.811,1.221-1.632,2.332" transform="translate(5.311 11.947)"/>
            </g>
            <g id="Group_4761" data-name="Group 4761" transform="translate(10.289 37.588)">
              <path id="Path_4446" data-name="Path 4446" class="cls-8" d="M-7.011-4.141c-.7.434-1.469,1.283-2.092,1.189a2.6,2.6,0,0,1-1.731-1.7A1.49,1.49,0,0,1-8.974-6.382c.728.137,1.334.927,1.994,1.424q-.015.409-.031.817" transform="translate(10.863 6.416)"/>
            </g>
            <g id="Group_4762" data-name="Group 4762" transform="translate(217.158 1.391)">
              <path id="Path_4447" data-name="Path 4447" class="cls-8" d="M-4.02-.012c.47.684,1.364,1.415,1.3,2.041A2.616,2.616,0,0,1-4.387,3.786,1.476,1.476,0,0,1-6.209,2.028C-6.1,1.293-5.3.66-4.8-.019l.783.007" transform="translate(6.229 0.019)"/>
            </g>
            <g id="Group_4763" data-name="Group 4763" transform="translate(164.069 189.266)">
              <path id="Path_4448" data-name="Path 4448" class="cls-8" d="M-3.977-.048C-3.518.639-2.7,1.333-2.711,2.012-2.722,2.6-3.9,3.734-4.183,3.626A3.484,3.484,0,0,1-6.148,1.848C-6.3,1.417-5.263.58-4.762-.075l.785.027" transform="translate(6.163 0.075)"/>
            </g>
            <g id="Group_4764" data-name="Group 4764" transform="translate(0 67.572)">
              <path id="Path_4449" data-name="Path 4449" class="cls-8" d="M-6.718-3.571c-.717.508-1.395,1.351-2.162,1.443a1.45,1.45,0,0,1-1.478-1.913A2.475,2.475,0,0,1-8.648-5.528c.569-.078,1.256.708,1.891,1.111q.02.423.039.846" transform="translate(10.41 5.533)"/>
            </g>
            <g id="Group_4765" data-name="Group 4765" transform="translate(3.314 51.845)">
              <path id="Path_4450" data-name="Path 4450" class="cls-8" d="M-7.366-2.749C-8.548-1.921-9.2-1.158-9.948-1.056c-.449.061-1.553-1.049-1.46-1.382A2.773,2.773,0,0,1-9.857-4.248c.537-.127,1.311.743,2.492,1.5" transform="translate(11.414 4.26)"/>
            </g>
            <g id="Group_4766" data-name="Group 4766" transform="translate(1.055 58.89)">
              <path id="Path_4451" data-name="Path 4451" class="cls-8" d="M-3.148,0c.767,1.22,1.578,1.941,1.5,2.549A2.256,2.256,0,0,1-3.26,4.086c-.577,0-1.632-.982-1.617-1.51.02-.7.871-1.381,1.73-2.576" transform="translate(4.877)"/>
            </g>
            <g id="Group_4767" data-name="Group 4767" transform="translate(131.8 98.219)">
              <path id="Path_4452" data-name="Path 4452" class="cls-9" d="M-67.173-18.633c.352,8.407.664,16.605-5.047,23.561-8.551,10.414-22.985,8.488-29.231-3.879-2.4-4.758-2.807-9.818-2.585-15a1.524,1.524,0,0,1,.513-1.025,29.1,29.1,0,0,0,9.855-13.9,32.359,32.359,0,0,0,11.992,8.386,29.572,29.572,0,0,0,14.5,1.854" transform="translate(104.089 28.873)"/>
            </g>
            <g id="Group_4768" data-name="Group 4768" transform="translate(153.665 147.988)">
              <path id="Path_4453" data-name="Path 4453" class="cls-9" d="M-45.628-58.736c0-3.037,0-5.685,0-8.333,0-.983-.013-2.068-1.341-2.037-1.183.027-1.242,1.009-1.234,1.959.024,2.658.062,5.317-.03,7.972a2.023,2.023,0,0,1-.913,1.56,71.281,71.281,0,0,1-18.9,3.722c-.345-2.445-.694-4.813-1.008-7.185-.565-4.27-1.15-8.538-1.63-12.818a13.3,13.3,0,0,1,.306-2.909l.563-.048a8.265,8.265,0,0,1,.69.882c1.228,2.082,2.019,2.091,3.374.011,2.929-4.5,5.9-8.979,8.759-13.523a2.8,2.8,0,0,1,3-1.513,21.574,21.574,0,0,1,19.97,21.266c.087,5.442.1,5.464-4.843,7.9-2.1,1.037-4.267,1.959-6.761,3.1" transform="translate(70.704 91.016)"/>
            </g>
            <g id="Group_4769" data-name="Group 4769" transform="translate(110.16 147.977)">
              <path id="Path_4454" data-name="Path 4454" class="cls-9" d="M-65.255-25.6c1.508,1.082,1.338,2.372,1.127,3.775-.936,6.233-1.8,12.477-2.723,18.984a34.878,34.878,0,0,1-4.559-.565c-4.672-1.2-9.3-2.563-13.966-3.813-1.2-.322-1.518-.991-1.464-2.179a58.635,58.635,0,0,0-.028-6.549c-.043-.634-.687-1.671-1.174-1.745-1.137-.172-1.343.82-1.335,1.8.019,2.237.006,4.474.006,7.132-2.869-1.514-5.429-3.069-8.152-4.249-3.1-1.341-3.887-3.27-3.506-6.672C-99.8-30.631-91.7-38.833-80.793-39.661a2.2,2.2,0,0,1,2.309,1.125c3,4.595,6.049,9.153,9.09,13.718,1.607,2.413,2.2,2.4,3.658-.034.143-.24.3-.472.482-.752" transform="translate(101.117 39.674)"/>
            </g>
            <g id="Group_4770" data-name="Group 4770" transform="translate(131.813 90.31)">
              <path id="Path_4455" data-name="Path 4455" class="cls-9" d="M-.246-34.134c-.464-5.407.156-10.2,3.582-14.278a11.693,11.693,0,0,1,9.445-4.43c3.192.025,6.392.16,9.574-.024,8.128-.472,12.616,5.558,13.834,11.19.283,1.311.362,2.665.56,4.195a23.642,23.642,0,0,1-8.932-.221A28.508,28.508,0,0,1,11.18-47.774a9.99,9.99,0,0,0-1.874-1.414,8.2,8.2,0,0,0-1.377,2.055,26.9,26.9,0,0,1-8.175,13" transform="translate(0.382 52.892)"/>
            </g>
            <g id="Group_4771" data-name="Group 4771" transform="translate(139.483 138.392)">
              <path id="Path_4456" data-name="Path 4456" class="cls-9" d="M-38.22-.1c.4,1.95.274,3.337-1.47,4.542-2.658,1.837-5.112,3.977-7.583,6.071a1.48,1.48,0,0,1-2.264.016c-2.833-2.3-5.836-4.411-8.533-6.859-.854-.775-.951-2.383-1.155-3.824C-52.115,3.842-45.2,4-38.22-.1" transform="translate(59.225 0.153)"/>
            </g>
            <g id="Group_4772" data-name="Group 4772" transform="translate(152.015 142.279)">
              <path id="Path_4457" data-name="Path 4457" class="cls-9" d="M-21.862,0c.255.4.342.55.438.691,1.765,2.573,1.34,4.792-.553,7.262-2.488,3.247-4.542,6.827-6.935,10.5l-4.966-8.792L-21.862,0" transform="translate(33.877)"/>
            </g>
            <g id="Group_4773" data-name="Group 4773" transform="translate(134.804 142.253)">
              <path id="Path_4458" data-name="Path 4458" class="cls-9" d="M-25.118-17.622-30-8.886c-.4-.513-.723-.893-1-1.308-2.325-3.486-4.583-7.019-6.99-10.447-.946-1.347-1.3-2.526-.431-4.021a16.745,16.745,0,0,0,.98-2.644l12.326,9.684" transform="translate(38.921 27.306)"/>
            </g>
            <g id="Group_4774" data-name="Group 4774" transform="translate(147.05 164.719)">
              <path id="Path_4459" data-name="Path 4459" class="cls-9" d="M-7.143-.31c.877,6.687,1.754,13.374,2.65,20.21h-6.576c.406-2.927.777-5.647,1.164-8.366.5-3.5.991-7,1.53-10.488A7.021,7.021,0,0,1-7.753-.481l.61.171" transform="translate(11.069 0.481)"/>
            </g>
            <g id="Group_4775" data-name="Group 4775" transform="translate(148.084 154.341)">
              <path id="Path_4460" data-name="Path 4460" class="cls-9" d="M-4.058,0C-3.3,1.315-2.683,2.363-2.089,3.424a3.126,3.126,0,0,1-.879,3.894A2.268,2.268,0,0,1-4.962,7.4a3.37,3.37,0,0,1-1.094-3.91c.073-.16.165-.312.253-.464C-5.279,2.117-4.753,1.206-4.058,0" transform="translate(6.288)"/>
            </g>
            <g id="Group_4776" data-name="Group 4776" transform="translate(218.587 55.422)">
              <path id="Path_4461" data-name="Path 4461" class="cls-9" d="M-14.193,0A23.969,23.969,0,0,0,5.7,7.632c.346,5.925.466,11.674-3.169,16.69C-.3,28.237-4.074,30.636-9.055,30.182c-5.456-.5-8.956-3.847-11.258-8.592A20.581,20.581,0,0,1-21.948,11.4a2.24,2.24,0,0,1,.755-1.454,23.077,23.077,0,0,0,7-9.944" transform="translate(21.994)"/>
            </g>
            <g id="Group_4777" data-name="Group 4777" transform="translate(235.133 93.328)">
              <path id="Path_4462" data-name="Path 4462" class="cls-9" d="M0-19.857a5.907,5.907,0,0,1,.922.584c1.328,1.675,1.9,1.656,3.11-.182,2.2-3.355,4.426-6.7,6.553-10.1a2.182,2.182,0,0,1,2.444-1.181c8.706,1.02,14.584,7.749,14.754,16.633.047,2.461-.6,3.966-2.934,4.837-1.746.651-3.392,1.572-5.4,2.523,0-2.159-.006-3.96,0-5.762,0-.984.024-2.056-1.331-2.028-1.216.024-1.251,1.02-1.248,1.951.006,1.891.051,3.784-.04,5.67a1.737,1.737,0,0,1-.815,1.26C13.328-4.406,5.315-2.916,2.16-3.03L0-19.857" transform="translate(0 30.769)"/>
            </g>
            <g id="Group_4778" data-name="Group 4778" transform="translate(201.84 93.269)">
              <path id="Path_4463" data-name="Path 4463" class="cls-9" d="M-50.41-20.605c-.037,5.474-1.184,10.811-1.881,16.752-3.482-.834-6.743-1.5-9.937-2.408-4.728-1.343-4.68-1.415-4.738-6.342-.013-1.131.566-2.923-1.236-2.98-2-.063-1.316,1.815-1.409,2.988-.084,1.05-.017,2.112-.017,3.738-2.952-1.7-5.579-3.2-8.183-4.735-.187-.11-.279-.506-.29-.774a17.055,17.055,0,0,1,10-16.194,13.568,13.568,0,0,1,1.322-.5c4.4-1.459,4.725-1.347,7.262,2.47q2.6,3.905,5.2,7.811c1.463,2.188,2.007,2.2,3.909.177" transform="translate(78.113 31.929)"/>
            </g>
            <g id="Group_4779" data-name="Group 4779" transform="translate(218.628 49.117)">
              <path id="Path_4464" data-name="Path 4464" class="cls-9" d="M-51.092-21.3c-2.762-.241-5.227-.091-7.469-.727a22.626,22.626,0,0,1-12.1-7.865,2.017,2.017,0,0,0-1.567-.774c-.454.094-.959.806-1.113,1.342a20.5,20.5,0,0,1-5.583,9.485C-80.293-25.915-75.9-33.35-69.275-33c3,.16,6.015.027,9.024.04,2.987.013,6.921,2.8,7.792,5.673.541,1.779.84,3.631,1.367,5.981" transform="translate(79.171 33.009)"/>
            </g>
            <g id="Group_4780" data-name="Group 4780" transform="translate(220.955 88.971)">
              <path id="Path_4465" data-name="Path 4465" class="cls-9" d="M-17.879-13.047l-3.439,6.1c-2.2-3.312-4.394-6.37-6.253-9.621-.429-.751.3-2.163.559-3.644l9.134,7.17" transform="translate(27.704 20.217)"/>
            </g>
            <g id="Group_4781" data-name="Group 4781" transform="translate(234.17 89.176)">
              <path id="Path_4466" data-name="Path 4466" class="cls-9" d="M-15.733,0c1.366,1.793,1.439,3.253.1,5.011-1.887,2.473-3.455,5.189-5.3,8.009L-24.38,6.967-15.733,0" transform="translate(24.38)"/>
            </g>
            <g id="Group_4782" data-name="Group 4782" transform="translate(224.3 86.168)">
              <path id="Path_4467" data-name="Path 4467" class="cls-9" d="M-1.014,0A14.848,14.848,0,0,0,14.029.139l.414.326a6.72,6.72,0,0,1-1.088,2C11.5,4.1,9.478,5.552,7.609,7.175c-.828.72-1.355.564-2.1-.053-1.958-1.61-4.019-3.1-5.94-4.747A6.9,6.9,0,0,1-1.572.344L-1.014,0" transform="translate(1.572)"/>
            </g>
            <g id="Group_4783" data-name="Group 4783" transform="translate(230.328 106.825)">
              <path id="Path_4468" data-name="Path 4468" class="cls-9" d="M-4.491-.045q.459,3.567.919,7.134c.3,2.33.61,4.659.938,7.157H-6.959L-4.917-.069l.426.024" transform="translate(6.959 0.069)"/>
            </g>
            <g id="Group_4784" data-name="Group 4784" transform="translate(231.171 98.499)">
              <path id="Path_4469" data-name="Path 4469" class="cls-9" d="M-2.371,0A9.56,9.56,0,0,1-.964,2.676,3.887,3.887,0,0,1-1.823,4.8a1.2,1.2,0,0,1-1.034.043,4.9,4.9,0,0,1-.811-2.331A8.177,8.177,0,0,1-2.371,0" transform="translate(3.674)"/>
            </g>
            <g id="Group_4785" data-name="Group 4785" transform="translate(48.528 66.351)">
              <path id="Path_4470" data-name="Path 4470" class="cls-9" d="M-13.992,0A23.844,23.844,0,0,0,5.48,7.475c.375,6.637.326,13.035-4.7,18.132-5.715,5.8-14.1,5.078-19.014-1.583-2.886-3.91-3.637-8.372-3.41-13.084a1.549,1.549,0,0,1,.506-1.024A22.908,22.908,0,0,0-13.992,0" transform="translate(21.681)"/>
            </g>
            <g id="Group_4786" data-name="Group 4786" transform="translate(32.349 103.469)">
              <path id="Path_4471" data-name="Path 4471" class="cls-9" d="M-49.707-20.268C-50.4-14.685-51.1-9.1-51.858-2.992L-66.292-6.506c0-2.539,0-4.706,0-6.873,0-1.019.1-2.227-1.364-2.182-1.423.044-1.309,1.248-1.309,2.263,0,1.65,0,3.3,0,5.488-2.7-1.562-5.119-2.938-7.5-4.368-.23-.138-.326-.6-.376-.926A16.117,16.117,0,0,1-63.355-31.34a2.845,2.845,0,0,1,3.325,1.5c1.877,3.138,4,6.132,6.025,9.179,1.492,2.242,1.941,2.278,3.615.33l.683.06" transform="translate(77.025 31.406)"/>
            </g>
            <g id="Group_4787" data-name="Group 4787" transform="translate(48.542 60.129)">
              <path id="Path_4472" data-name="Path 4472" class="cls-9" d="M-49.635-20.051a21.181,21.181,0,0,1-18.232-7.28A13.045,13.045,0,0,0-70-28.918,12.45,12.45,0,0,0-71.38-26.7a20.175,20.175,0,0,1-5.271,8.459c-1.131-4.124,1.533-10.182,5.291-11.929,2.544-1.183,13.875-1.259,16.308.133,3.755,2.147,5.088,5.639,5.416,9.987" transform="translate(76.913 31.07)"/>
            </g>
            <g id="Group_4788" data-name="Group 4788" transform="translate(50.927 99.442)">
              <path id="Path_4473" data-name="Path 4473" class="cls-9" d="M-17.337-12.247l-3.291,5.886c-.78-1.137-1.459-2.112-2.122-3.1a54.949,54.949,0,0,0-3.266-4.815c-1.384-1.649-.879-3.049.108-4.7l8.571,6.731" transform="translate(26.865 18.978)"/>
            </g>
            <g id="Group_4789" data-name="Group 4789" transform="translate(54.627 96.372)">
              <path id="Path_4474" data-name="Path 4474" class="cls-9" d="M-.01,0C4.926,2.789,9.77,2.839,15.064.474c-.27.627-.372,1.446-.837,1.847C12.093,4.17,9.856,5.9,7.676,7.661,3.346,5.293-.176,1.881-.01,0" transform="translate(0.016)"/>
            </g>
            <g id="Group_4790" data-name="Group 4790" transform="translate(59.925 116.592)">
              <path id="Path_4475" data-name="Path 4475" class="cls-9" d="M-4.723,0l1.978,15.2H-7.318C-6.576,9.986-5.864,4.994-5.153,0Z" transform="translate(7.318)"/>
            </g>
            <g id="Group_4791" data-name="Group 4791" transform="translate(60.954 108.523)">
              <path id="Path_4476" data-name="Path 4476" class="cls-9" d="M-2.191,0A8.461,8.461,0,0,1-.92,2.431,4.367,4.367,0,0,1-1.6,4.621c-.085.172-.979.207-1.032.09a5.6,5.6,0,0,1-.76-2.369c.03-.68.654-1.333,1.2-2.342" transform="translate(3.395)"/>
            </g>
          </g>
        </g>
      </g>
    </g>
  </g>
</svg>
