<svg xmlns="http://www.w3.org/2000/svg" xmlns:xlink="http://www.w3.org/1999/xlink" viewBox="0 0 902.451 646.448">
  <defs>
    <style>
      .cls-1, .cls-2 {
        fill: none;
      }

      .cls-2 {
        stroke: #2a2a2a;
        stroke-width: 4px;
      }

      .cls-3 {
        fill: #def2f9;
      }

      .cls-4 {
        clip-path: url(#clip-path);
      }

      .cls-5, .cls-6 {
        fill-rule: evenodd;
      }

      .cls-6 {
        fill: #fff;
      }

      .cls-7, .cls-8 {
        fill: #101010;
      }

      .cls-7 {
        font-size: 36px;
        font-family: Montserrat-SemiBold, Montserrat;
        font-weight: 600;
      }

      .cls-8 {
        font-size: 24px;
        font-family: Montserrat-Regular, Montserrat;
      }

      .cls-9 {
        stroke: none;
      }

      .cls-10 {
        filter: url(#Rectangle_1270);
      }
    </style>
    <filter id="Rectangle_1270" x="0" y="109.354" width="902.451" height="537.093" filterUnits="userSpaceOnUse">
      <feOffset dy="3" input="SourceAlpha"/>
      <feGaussianBlur stdDeviation="3" result="blur"/>
      <feFlood flood-opacity="0.161"/>
      <feComposite operator="in" in2="blur"/>
      <feComposite in="SourceGraphic"/>
    </filter>
    <clipPath id="clip-path">
      <path id="Path_4529" data-name="Path 4529" class="cls-1" d="M0-349.651H186.12v197.334H0Z" transform="translate(0 349.651)"/>
    </clipPath>
  </defs>
  <g id="Group_5454" data-name="Group 5454" transform="translate(-509 -163.599)">
    <g id="Group_5448" data-name="Group 5448">
      <g id="Group_5445" data-name="Group 5445" transform="translate(-36 -78.896)">
        <g class="cls-10" transform="matrix(1, 0, 0, 1, 545, 242.49)">
          <g id="Rectangle_1270-2" data-name="Rectangle 1270" class="cls-2" transform="translate(9 115.35)">
            <rect class="cls-9" width="884.451" height="519.093"/>
            <rect class="cls-1" x="2" y="2" width="880.451" height="515.093"/>
          </g>
        </g>
        <rect id="Rectangle_1271" data-name="Rectangle 1271" class="cls-3" width="737.526" height="379.123" rx="4" transform="translate(627 420.211)"/>
      </g>
      <g id="Group_4855" data-name="Group 4855" transform="translate(897.393 163.599) rotate(16)">
        <g id="Group_4854" data-name="Group 4854" class="cls-4">
          <g id="Group_4834" data-name="Group 4834" transform="translate(0 11.139)">
            <path id="Path_4509" data-name="Path 4509" class="cls-5" d="M-111.323-127.779c-.008-.058-.014-.115-.021-.173-5.917,6.933-14.352,10.37-23.412,12.057-4.462,1.967-16.912,4.268-21.859,4.09-.106-.826-.213-1.662-.319-2.493q-1.921,0-3.777-.01c-.147.015-.295.036-.442.049.111.847.223,1.7.338,2.568H-167.7l.323-2.26c-.172,0-.345.006-.515.007a11.111,11.111,0,0,1-3.646-.6c-.141,1.05-.278,2.106-.4,3.179-5.541-1.327-10.732-2.388-15.814-3.832-3.911-1.111-5.762-1.681-6.657-3.07-1.72-.472-3.433-1.009-5.121-1.612,0,.181,0,.36,0,.551-1-.577-1.976-1.136-2.935-1.687a41.119,41.119,0,0,1-13.519-8.746,11.372,11.372,0,0,1-.893-1.025c-.016.133-.032.264-.047.4-23.223-16.421-40.787-51.578-32.367-89.04a88.686,88.686,0,0,1,86.244-69.735,88.539,88.539,0,0,1,85.66,62.839c14.274,47.253-12.425,85.158-33.935,98.54m41.351-82.915c-4.063-41.257-39.584-82.313-92.492-82.63a93.053,93.053,0,0,0-93.085,93.082,92.912,92.912,0,0,0,92.162,93.106c26.141.291,48.808-8.973,67.14-27.711,20.6-21.06,29.16-46.546,26.274-75.847" transform="translate(255.549 293.324)"/>
          </g>
          <g id="Group_4835" data-name="Group 4835" transform="translate(151.435 20.523)">
            <path id="Path_4510" data-name="Path 4510" class="cls-5" d="M-4.65-2.965C-5.8-2.321-7.091-1.01-8.061-1.216A4.17,4.17,0,0,1-10.649-4.1,2.367,2.367,0,0,1-7.573-6.718c1.145.281,2.033,1.605,3.035,2.462Z" transform="translate(10.675 6.806)"/>
          </g>
          <g id="Group_4836" data-name="Group 4836" transform="translate(54.219 6.465)">
            <path id="Path_4511" data-name="Path 4511" class="cls-5" d="M-.024-1.567c1.1-.735,2.29-2.148,3.281-2.022a4.181,4.181,0,0,1,2.773,2.7A2.388,2.388,0,0,1,3.155,1.973C2,1.808,1.01.509-.054-.283l.03-1.284" transform="translate(0.054 3.596)"/>
          </g>
          <g id="Group_4837" data-name="Group 4837" transform="translate(117.35 3.791)">
            <path id="Path_4512" data-name="Path 4512" class="cls-5" d="M-4.764-2.613c-1.069.757-2.053,1.93-3.228,2.171-1.657.34-2.868-.767-2.939-2.565-.075-1.871.9-3.251,2.818-2.951,1.183.185,2.219,1.317,3.32,2.025Z" transform="translate(10.935 5.999)"/>
          </g>
          <g id="Group_4838" data-name="Group 4838" transform="translate(92.145 0)">
            <path id="Path_4513" data-name="Path 4513" class="cls-5" d="M-4.754-2.807c-1.108.721-2.32,2.128-3.3,1.98A4.187,4.187,0,0,1-10.87-3.545,2.467,2.467,0,0,1-7.917-6.4c1.165.2,2.141,1.51,3.2,2.323l-.039,1.272" transform="translate(10.913 6.442)"/>
          </g>
          <g id="Group_4839" data-name="Group 4839" transform="translate(161.036 27.512)">
            <path id="Path_4514" data-name="Path 4514" class="cls-5" d="M-2.255,0C-.927,1.935.517,3.115.41,4.132A4.127,4.127,0,0,1-2.261,6.978,2.44,2.44,0,0,1-5.135,4.07c.2-1.185,1.487-2.185,2.88-4.07" transform="translate(5.177)"/>
          </g>
          <g id="Group_4840" data-name="Group 4840" transform="translate(43.04 11.569)">
            <path id="Path_4515" data-name="Path 4515" class="cls-5" d="M-4.779-2.766C-5.9-2.053-6.96-.876-8.144-.739c-1.829.212-2.957-1.133-2.813-3.015.132-1.722,1.322-2.919,3.011-2.518,1.185.282,2.153,1.475,3.218,2.26Z" transform="translate(10.97 6.349)"/>
          </g>
          <g id="Group_4841" data-name="Group 4841" transform="translate(129.39 7.997)">
            <path id="Path_4516" data-name="Path 4516" class="cls-5" d="M-4.737-2.476C-5.78-1.685-6.731-.441-7.886-.208a2.311,2.311,0,0,1-2.933-2.725A4.15,4.15,0,0,1-8.12-5.67c.985-.155,2.208,1.2,3.326,1.887q.03.654.058,1.308" transform="translate(10.874 5.683)"/>
          </g>
          <g id="Group_4842" data-name="Group 4842" transform="translate(104.395 1.117)">
            <path id="Path_4517" data-name="Path 4517" class="cls-5" d="M0-1.816c1.04-.8,1.991-2.091,3.14-2.3A2.37,2.37,0,0,1,6.092-1.365,4.13,4.13,0,0,1,3.381,1.349C2.4,1.508,1.174.174.058-.5Q.028-1.158,0-1.816" transform="translate(0 4.168)"/>
          </g>
          <g id="Group_4843" data-name="Group 4843" transform="translate(79.596 0.059)">
            <path id="Path_4518" data-name="Path 4518" class="cls-5" d="M-2.439,0C-1.624,1.057-.344,2.017-.1,3.191a2.351,2.351,0,0,1-2.769,2.93A4.1,4.1,0,0,1-5.588,3.406C-5.725,2.391-4.365,1.175-3.663.047L-2.439,0" transform="translate(5.598)"/>
          </g>
          <g id="Group_4844" data-name="Group 4844" transform="translate(140.749 13.535)">
            <path id="Path_4519" data-name="Path 4519" class="cls-5" d="M-4.8-2.645C-5.9-1.894-7.054-.473-8.06-.574a4.119,4.119,0,0,1-2.911-2.574A2.4,2.4,0,0,1-8.116-6.031c1.192.2,2.215,1.419,3.313,2.18Z" transform="translate(11.026 6.072)"/>
          </g>
          <g id="Group_4845" data-name="Group 4845" transform="translate(66.891 2.214)">
            <path id="Path_4520" data-name="Path 4520" class="cls-5" d="M-2.713-.008C-1.965,1.081-.543,2.244-.652,3.239A4.162,4.162,0,0,1-3.3,6.037a2.349,2.349,0,0,1-2.9-2.8c.17-1.169,1.452-2.177,2.237-3.257l1.247.011" transform="translate(6.229 0.019)"/>
          </g>
          <g id="Group_4846" data-name="Group 4846" transform="translate(14.654 39.602)">
            <path id="Path_4521" data-name="Path 4521" class="cls-5" d="M-44.019-61.676c-1.693-2.316-1.95-2.538-4-1.708-3.407,1.377-6.467.663-9.361-1.232-3.063-2.006-5.917-4.376-9.123-6.1a19.48,19.48,0,0,0-7.37-2.218,22.645,22.645,0,0,0-7.805.894c-1.4.385-3.281,1.69-3.591,2.92a15.412,15.412,0,0,1-6.8,9.276c-2.567,1.766-4.256,4.326-3.369,7.731q2.092,8.025,4.373,16c.2.691.948,1.647,1.545,1.729,3.983.544,6.765,3.084,9.669,5.463,2.69,2.2,5.328,4.472,8.115,6.546,2.907,2.164,4.005,1.776,5.323-1.677.869-2.277,1.4-4.7,2.449-6.887,1.882-3.918,6.36-4.957,9.451-2.572,2.112,1.629,4.477,2.927,6.649,4.485,1.663,1.193,3.218,2.54,4.79,3.857,1.361,1.139,2.64,2.379,4.023,3.488,1.552,1.245,2.664.926,3.443-.992.985-2.431,2.141-4.792,3.223-7.184s2.761-4.051,5.5-4.249,4.32,1.483,5.551,3.634c1.538,2.688,3.043,5.4,4.6,8.073,2.264,3.895,4.215,4.745,8.654,3.837,2.759-.565,5.548-1.018,8.269-1.73C3.4-21.141,6.6-22.112,9.728-23.251c.779-.283,1.826-1.535,1.71-2.141a3.287,3.287,0,0,0-2.147-1.865,4.691,4.691,0,0,0-3.162.236c-4.275,2.228-7.9,1.077-11-2.079a34.864,34.864,0,0,1-4.575-6.015c-1.009-1.617-2.037-2.134-3.924-1.685-5.74,1.366-7.407.542-9.98-4.87-.84-1.767-2.223-2.553-3.838-1.921-2.58,1.009-5.522,1.952-7.349,3.848-3.713,3.854-8.166,5.229-13.152,5.492-5.548.293-9.108-3.243-9.1-8.748.005-3.93,2.627-6.056,6.543-5.958a22.963,22.963,0,0,0,6.979-1.225,66.8,66.8,0,0,0,6.87-2.925,18.741,18.741,0,0,0-3.922-.716c-1.863.09-3.7.573-5.568.778-2.074.23-3.82-.349-4.314-2.636-.509-2.359.573-4.039,2.714-4.978a28.92,28.92,0,0,1,3.463-1.02m2.612-58.087c3.505,5.815,3.148,8.215-1.573,12.6-.138.128-.293.238-.422.374-2.048,2.168-1.343,5.119,1.142,6.791,3.186,2.145,6.9,1.53,10.227,2.544a24,24,0,0,0,12.009.8c3.785-.694,7.948-2.682,12.089-.741.354.166,1.075-.249,1.533-.539,2.3-1.452,4.644-2.848,6.833-4.455,6.516-4.782,11.157-4.289,16.169,2.059a4.415,4.415,0,0,0,4.539,1.837c4.522-.488,8.471.869,10.8,5.053,3.3,5.924,3.3,12.4,2.655,18.913a5.2,5.2,0,0,1-1.233,2.495,8.233,8.233,0,0,0-1.584,7.781c1.433,0,2.977-.4,4.083.118,1.04.49,1.619,1.959,2.192,2.72.664-1.33,1.044-3.6,2.3-4.3,2.7-1.51,4.19-4.184,6.449-5.823,3.258-2.365,3.106-4.925,2.333-8.047C43.862-100.855,31.8-117,12.618-127.7c-1.453-.81-3.344-.8-4.99-1.306-1.54-.476-3.58-.7-4.422-1.8-2.029-2.632-4.259-3-7.333-2.527a8.7,8.7,0,0,1-5.856-1.1,12.557,12.557,0,0,0-7.36-2.166c-3.567-.1-7.14-.042-10.71.024a19.64,19.64,0,0,0-2.9.486c1.8,5.484.281,9.225-4.75,12.473-1.877,1.211-3.707,2.5-5.7,3.846m14.551,89.6c-1.576,3.284-2.892,5.658-3.883,8.162-2.518,6.362-6.606,7.77-11.96,3.535-4.017-3.177-7.47-7.077-12.464-8.885a4.046,4.046,0,0,1-1.258-1.107c-1.97-2.024-2.868-1.842-3.839.859-.668,1.855-1.19,3.763-1.893,5.6-2.305,6.032-6.769,7.514-11.992,3.771-3.276-2.347-6.263-5.1-9.407-7.633-.955-.77-2-1.426-3.6-2.549,15.332,30.39,55.83,49.48,94.25,32.5C26.292-4.4,39.441-18.806,46.68-38.482a65.472,65.472,0,0,0,3.959-29.2c-2.347,1.813-4.589,3.455-6.7,5.253a2.751,2.751,0,0,0-.546,2.019c.147,2.234-1.036,3.51-2.873,4.385-2.8,1.337-5.433,1.34-7.582-1.149-4.224,2.075-5.955.988-6.067-3.668a36.025,36.025,0,0,0-.1-4.5,11.951,11.951,0,0,1,2.091-8.536A6.453,6.453,0,0,0,30.179-77.2a79.739,79.739,0,0,0-1.041-10.914c-.694-3.839-3.777-6.425-7.193-5.68-4.592,1-7.3-1.016-9.744-4.386-2.181-3-4.663-3.31-7.767-1.235-2.5,1.668-4.981,3.354-7.482,5.012-2.276,1.508-4.622,2.454-7.43,1.342-.673-.267-1.605.1-2.415.2-1.573.2-3.157.348-4.713.645a23.01,23.01,0,0,0-5.062,1.255,6.773,6.773,0,0,1-6.689-.353,14.226,14.226,0,0,0-4.4-1.595c-2.378-.455-4.933-.248-7.192-.993-2.7-.89-5.17-2.487-7.931-3.874a10.236,10.236,0,0,0-.037-2.787c-1.27-4.749.144-8.391,3.993-11.4.659-.515.872-2.541.41-3.389-2.451-4.5-2.118-6.421,2.042-9.481a48.922,48.922,0,0,0,6.566-5.216c.705-.737.626-2.817.112-3.912-.326-.7-2.222-1.195-3.224-.963a73.627,73.627,0,0,0-56.22,59.538c-.669,3.878-.738,7.861-1.126,12.256,3.745-1.7,5.728-3.829,6.4-7.162.738-3.655,3.239-5.7,6.74-6.345a72.276,72.276,0,0,1,9.242-1.036,16.155,16.155,0,0,1,11.044,3.48,68.314,68.314,0,0,0,8.156,5.538,7.22,7.22,0,0,0,4.736.849c7.3-1.747,11.311,1.4,10.857,8.953,1.675.477,3.384.939,5.078,1.454,2.5.76,4.212,2.316,4.032,5.062-.177,2.709-2.308,3.6-4.61,4.24A31.262,31.262,0,0,0-40.25-46.19c-3.087,1.533-6.158,2.8-9.708,2.217-2.026-.335-2.47.955-1.748,2.339.567,1.087,1.822,2.484,2.844,2.545a14.145,14.145,0,0,0,10.143-3.242,36.037,36.037,0,0,1,9.808-5.737c4.426-1.65,8.172.415,9.993,4.832.813,1.972,1.923,2.421,3.921,2.059,6.135-1.111,7.086-.59,10.34,5.035,2.836,4.9,5.044,5.79,10.183,4.1,3.825-1.258,8.716.782,10.318,4.3s.278,6.441-4.067,8.892a6.338,6.338,0,0,1-1.507.761C4.553-16.7-1.147-15.227-6.905-14.034c-7.079,1.467-10.6-.235-14.285-6.486-1.738-2.951-3.469-5.906-5.666-9.646m4.1-111.415c42.943-.129,78.375,34.98,78.516,77.8A78.5,78.5,0,0,1-22.4,15.228c-43.157.117-78.594-35-78.651-77.949a78.486,78.486,0,0,1,78.3-78.86" transform="translate(101.049 141.582)"/>
          </g>
          <g id="Group_4847" data-name="Group 4847" transform="translate(19.333 46.201)">
            <path id="Path_4522" data-name="Path 4522" class="cls-6" d="M-63.733-102.723a10.025,10.025,0,0,0-5.608-9.019c-3.614-1.518-6.907.552-7.172,4.446-.157,2.32-.425,4.631-.674,6.942-.46,4.282,2.7,6.977,6.858,5.825a9.1,9.1,0,0,0,6.6-8.2m8.06-47.873c9.49-1.531,17.375-4.041,22.806-11.429,2.8-3.812,2.37-7.678-1.375-10.221-3.976-2.7-9.155-1.755-11.15,2.276a12.91,12.91,0,0,1-5.232,5.238,54.712,54.712,0,0,0-7.548,5.8c-1.535,1.387-2.241,3.482-.889,5.343a17.751,17.751,0,0,0,3.387,2.995m-21.116,19.605c2.2,3.741,3.928,6.7,5.666,9.646,3.682,6.252,7.207,7.953,14.285,6.486,2.47-.512,4.93-1.076,7.683-1.733,2.969-.709,6.228-1.529,9.492-2.319a6.338,6.338,0,0,0,1.507-.761c4.346-2.452,5.675-5.363,4.067-8.892s-6.494-5.559-10.318-4.3c-5.139,1.689-7.347.8-10.183-4.1-3.255-5.626-4.205-6.146-10.34-5.035-2,.362-3.107-.087-3.921-2.059-1.821-4.416-5.567-6.481-9.992-4.832a36.032,36.032,0,0,0-9.809,5.737,14.145,14.145,0,0,1-10.143,3.242c-1.022-.061-2.277-1.458-2.844-2.545-.722-1.384-.278-2.674,1.748-2.339,3.55.586,6.622-.684,9.708-2.217a31.252,31.252,0,0,1,5.555-1.909c2.3-.641,4.432-1.531,4.61-4.24.18-2.746-1.537-4.3-4.032-5.062-1.694-.515-3.4-.977-5.078-1.454.454-7.556-3.557-10.7-10.857-8.953a7.22,7.22,0,0,1-4.736-.849,68.318,68.318,0,0,1-8.156-5.538,16.155,16.155,0,0,0-11.044-3.48,72.277,72.277,0,0,0-9.242,1.036c-3.5.648-6,2.69-6.74,6.345-.672,3.333-2.656,5.459-6.4,7.162.388-4.4.458-8.378,1.126-12.256a73.627,73.627,0,0,1,56.22-59.538c1-.231,2.9.266,3.224.963.514,1.1.593,3.176-.112,3.912a48.921,48.921,0,0,1-6.566,5.216c-4.159,3.06-4.492,4.979-2.042,9.481.462.849.249,2.874-.41,3.389-3.849,3.01-5.262,6.653-3.992,11.4a10.257,10.257,0,0,1,.037,2.787c2.761,1.387,5.229,2.984,7.931,3.874,2.259.745,4.814.538,7.192.993a14.234,14.234,0,0,1,4.4,1.595,6.772,6.772,0,0,0,6.688.353,23.025,23.025,0,0,1,5.062-1.255c1.556-.3,3.139-.446,4.713-.645.81-.1,1.742-.47,2.415-.2,2.808,1.113,5.154.166,7.43-1.342,2.5-1.658,4.986-3.344,7.482-5.012,3.1-2.075,5.586-1.768,7.767,1.235,2.448,3.37,5.152,5.388,9.744,4.386,3.416-.744,6.5,1.842,7.193,5.68a79.739,79.739,0,0,1,1.041,10.914,6.451,6.451,0,0,1-1.315,3.316,11.951,11.951,0,0,0-2.091,8.536,36.03,36.03,0,0,1,.1,4.5c.112,4.656,1.843,5.743,6.067,3.668,2.149,2.488,4.777,2.486,7.582,1.149,1.836-.875,3.021-2.151,2.873-4.385a2.753,2.753,0,0,1,.546-2.019c2.11-1.8,4.353-3.439,6.7-5.253a65.472,65.472,0,0,1-3.959,29.2c-7.239,19.675-20.388,34.085-39.578,42.569-38.42,16.984-78.918-2.105-94.25-32.5,1.593,1.123,2.641,1.778,3.6,2.549,3.144,2.535,6.131,5.285,9.407,7.633,5.224,3.743,9.687,2.261,11.992-3.771.7-1.84,1.226-3.749,1.893-5.6.971-2.7,1.869-2.883,3.839-.858a4.051,4.051,0,0,0,1.258,1.106c4.994,1.808,8.447,5.708,12.464,8.885,5.354,4.235,9.442,2.827,11.96-3.535.991-2.5,2.307-4.878,3.883-8.162" transform="translate(146.302 235.807)"/>
          </g>
          <g id="Group_4848" data-name="Group 4848" transform="translate(71.102 44.537)">
            <path id="Path_4523" data-name="Path 4523" class="cls-6" d="M-2.465-13.031c2-1.349,3.825-2.635,5.7-3.846,5.031-3.248,6.554-6.989,4.75-12.473a19.547,19.547,0,0,1,2.9-.486c3.569-.067,7.142-.126,10.71-.024a12.553,12.553,0,0,1,7.36,2.166,8.705,8.705,0,0,0,5.856,1.1c3.074-.47,5.3-.106,7.333,2.527.841,1.093,2.882,1.322,4.422,1.8,1.646.507,3.537.5,4.99,1.306C70.737-10.267,82.8,5.877,88.078,27.153c.774,3.122.926,5.682-2.333,8.047C83.486,36.838,82,39.512,79.3,41.022c-1.256.7-1.637,2.971-2.3,4.3-.573-.76-1.152-2.229-2.192-2.719-1.107-.523-2.65-.118-4.083-.118A8.232,8.232,0,0,1,72.3,34.7a5.207,5.207,0,0,0,1.233-2.495c.65-6.508.643-12.99-2.655-18.913-2.329-4.184-6.278-5.541-10.8-5.053a4.414,4.414,0,0,1-4.539-1.838C50.531.058,45.89-.435,39.374,4.347c-2.189,1.606-4.534,3-6.833,4.455-.458.29-1.178.705-1.533.539-4.141-1.941-8.3.047-12.089.741a24,24,0,0,1-12.009-.8C3.581,8.267-.131,8.882-3.318,6.737-5.8,5.065-6.508,2.115-4.46-.053c.129-.135.284-.246.422-.374,4.721-4.39,5.078-6.789,1.573-12.6" transform="translate(5.658 29.914)"/>
          </g>
          <g id="Group_4849" data-name="Group 4849" transform="translate(20.021 108.186)">
            <path id="Path_4524" data-name="Path 4524" class="cls-6" d="M-39.877-8.738a28.92,28.92,0,0,0-3.463,1.02c-2.141.939-3.223,2.619-2.714,4.978C-45.56-.453-43.814.125-41.74-.1c1.863-.205,3.7-.688,5.568-.778a18.741,18.741,0,0,1,3.922.716,66.8,66.8,0,0,1-6.87,2.925A22.963,22.963,0,0,1-46.1,3.983c-3.917-.1-6.538,2.028-6.543,5.958-.008,5.5,3.553,9.041,9.1,8.748,4.986-.264,9.439-1.639,13.152-5.492,1.827-1.9,4.768-2.839,7.349-3.848,1.615-.632,3,.154,3.838,1.921,2.572,5.412,4.24,6.236,9.98,4.87,1.886-.449,2.915.068,3.924,1.685A34.864,34.864,0,0,0-.725,23.838c3.1,3.155,6.722,4.307,11,2.079a4.691,4.691,0,0,1,3.162-.236,3.287,3.287,0,0,1,2.147,1.865c.116.606-.931,1.857-1.71,2.141-3.128,1.139-6.327,2.11-9.549,2.954-2.721.712-5.51,1.165-8.269,1.73-4.439.908-6.39.058-8.654-3.837-1.557-2.677-3.062-5.385-4.6-8.073-1.231-2.151-2.82-3.832-5.551-3.634s-4.415,1.86-5.5,4.249-2.238,4.753-3.223,7.184c-.778,1.918-1.891,2.237-3.443.992-1.383-1.109-2.662-2.349-4.023-3.488-1.572-1.317-3.127-2.664-4.79-3.857-2.172-1.558-4.536-2.855-6.649-4.485-3.091-2.385-7.569-1.346-9.451,2.572-1.049,2.184-1.58,4.61-2.449,6.887-1.317,3.452-2.416,3.841-5.323,1.677-2.786-2.074-5.425-4.344-8.115-6.546-2.9-2.379-5.687-4.919-9.669-5.463-.6-.082-1.347-1.038-1.545-1.729q-2.293-7.97-4.373-16c-.887-3.4.8-5.965,3.369-7.731a15.412,15.412,0,0,0,6.8-9.276c.31-1.23,2.188-2.535,3.591-2.92A22.645,22.645,0,0,1-69.735-20a19.48,19.48,0,0,1,7.37,2.218c3.206,1.728,6.06,4.1,9.123,6.1,2.895,1.9,5.954,2.609,9.361,1.232,2.053-.83,2.311-.608,4,1.708" transform="translate(91.54 20.06)"/>
          </g>
          <g id="Group_4850" data-name="Group 4850" transform="translate(105.858 108.233)">
            <path id="Path_4525" data-name="Path 4525" class="cls-5" d="M-4.322-13.4c6.715-.533,12.774-2.225,16.826-7.795a5.05,5.05,0,0,0,1.136-3.134c-.073-.628-1.61-1.628-2.336-1.51a6.612,6.612,0,0,0-3.035,1.869C6.191-22.041,4.354-19.844,2.2-18.017.172-16.3-2.138-14.925-4.322-13.4m-1.494,5.82A17.726,17.726,0,0,1-9.2-10.572c-1.353-1.861-.646-3.956.889-5.343a54.591,54.591,0,0,1,7.548-5.8,12.917,12.917,0,0,0,5.231-5.239c2-4.03,7.174-4.974,11.15-2.275,3.746,2.543,4.178,6.408,1.376,10.22C11.558-11.619,3.672-9.108-5.817-7.578" transform="translate(9.923 30.757)"/>
          </g>
          <g id="Group_4851" data-name="Group 4851" transform="translate(88.404 169.766)">
            <path id="Path_4526" data-name="Path 4526" class="cls-5" d="M-5.292-3.7l-1.072.223q-.4,3.953-.791,7.909l.757.514c.98-1.172,2.687-2.3,2.762-3.527C-3.534-.247-4.681-1.99-5.292-3.7M1.349,1.026a9.106,9.106,0,0,1-6.6,8.2C-9.4,10.374-12.565,7.678-12.1,3.4c.248-2.311.516-4.623.674-6.942.264-3.894,3.557-5.964,7.172-4.446A10.026,10.026,0,0,1,1.349,1.026" transform="translate(12.149 8.493)"/>
          </g>
          <g id="Group_4852" data-name="Group 4852" transform="translate(111.458 113.143)">
            <path id="Path_4527" data-name="Path 4527" class="cls-6" d="M0-9.608c2.185-1.526,4.495-2.9,6.52-4.619,2.156-1.826,3.994-4.023,6.071-5.951a6.612,6.612,0,0,1,3.035-1.869c.726-.118,2.263.882,2.336,1.51A5.05,5.05,0,0,1,16.826-17.4C12.774-11.833,6.715-10.141,0-9.608" transform="translate(0 22.056)"/>
          </g>
          <g id="Group_4853" data-name="Group 4853" transform="translate(93.398 174.559)">
            <path id="Path_4528" data-name="Path 4528" class="cls-6" d="M-1.438,0C-.827,1.71.321,3.453.218,5.119.143,6.347-1.564,7.475-2.544,8.646L-3.3,8.133q.4-3.955.791-7.909L-1.438,0" transform="translate(3.301)"/>
          </g>
        </g>
      </g>
      <text id="So_Mira_" data-name="So Mira,
" class="cls-7" transform="translate(802 469.507)"><tspan x="86.675" y="35">So Mira,</tspan><tspan x="158.189" y="79"></tspan></text>
      <text id="Are_you_ready_for_this_new_journey_through_Zariya." data-name="Are you ready for this
new journey through Zariya." class="cls-8" transform="translate(777 527.893)"><tspan x="58.544" y="23">Are you ready for this</tspan><tspan x="18.14" y="58">new journey through Zariya.</tspan></text>
    </g>
  </g>
</svg>
