<svg xmlns="http://www.w3.org/2000/svg" xmlns:xlink="http://www.w3.org/1999/xlink" viewBox="0 0 830 428">
  <defs>
    <style>
      .cls-1, .cls-4, .cls-9 {
        fill: none;
      }

      .cls-2 {
        fill: #def2f9;
      }

      .cls-3 {
        fill: #2a2a2a;
        font-size: 24px;
        font-family: Montserrat-Regular, Montserrat;
        letter-spacing: 0.058em;
      }

      .cls-4 {
        stroke: #2cc9ff;
      }

      .cls-5 {
        fill: #2cc9ff;
      }

      .cls-6 {
        clip-path: url(#clip-path);
      }

      .cls-7, .cls-8 {
        fill-rule: evenodd;
      }

      .cls-8 {
        fill: #fff;
      }

      .cls-9 {
        stroke: #252525;
        stroke-width: 2px;
      }

      .cls-10 {
        stroke: none;
      }

      .cls-11 {
        filter: url(#Rectangle_537);
      }
    </style>
    <filter id="Rectangle_537" x="0" y="0" width="830" height="428" filterUnits="userSpaceOnUse">
      <feOffset dy="3" input="SourceAlpha"/>
      <feGaussianBlur stdDeviation="3" result="blur"/>
      <feFlood flood-opacity="0.161"/>
      <feComposite operator="in" in2="blur"/>
      <feComposite in="SourceGraphic"/>
    </filter>
    <clipPath id="clip-path">
      <path id="Path_4687" data-name="Path 4687" class="cls-1" d="M0,0H95.666V94.94H0Z"/>
    </clipPath>
  </defs>
  <g id="Group_5719" data-name="Group 5719" transform="translate(-545 -286.5)">
    <g id="Group_5718" data-name="Group 5718">
      <g id="Group_5700" data-name="Group 5700">
        <g class="cls-11" transform="matrix(1, 0, 0, 1, 545, 286.5)">
          <rect id="Rectangle_537-2" data-name="Rectangle 537" class="cls-2" width="812" height="410" rx="4" transform="translate(9 6)"/>
        </g>
        <text id="Shri_you_have_done_a_wondeful_job_by_showing_empathy_and_love" data-name="Shri, you have done a wondeful job
by showing empathy and love" class="cls-3" transform="translate(962 538)"><tspan x="-228.912" y="0">Shri, you have done a wondeful job</tspan><tspan x="-194.892" y="29">by showing empathy and love</tspan></text>
        <path id="Path_2908" data-name="Path 2908" class="cls-4" d="M22656.51,4468.889h484" transform="translate(-21932.51 -3878.105)"/>
        <text id="Your_payment_is_successful_" data-name="Your payment is successful!" class="cls-3" transform="translate(962 631.5)"><tspan x="-178.704" y="0">Your payment is successful!</tspan></text>
        <circle id="Ellipse_215" data-name="Ellipse 215" class="cls-5" cx="18.332" cy="18.332" r="18.332" transform="translate(937.199 363.336)"/>
        <g id="Group_5242" data-name="Group 5242" transform="translate(918.482 348.121) rotate(7)">
          <g id="Group_5241" data-name="Group 5241" class="cls-6">
            <g id="Group_5215" data-name="Group 5215" transform="translate(0 0)">
              <path id="Path_4661" data-name="Path 4661" class="cls-7" d="M26.87,13.528c.383-.19.674-.343.972-.481,2.154-1,4.33-1.944,6.457-2.992a19.909,19.909,0,0,1,6.8-1.965,33.236,33.236,0,0,1,15.613,2.485c.9.351,1.759.835,2.672,1.155a1.532,1.532,0,0,0,2.148-.78,1.724,1.724,0,0,0-.719-2.414A39.768,39.768,0,0,0,52.192,4.4C41.154.67,30.523,1.381,20.4,7.376c-1.556.921-3.126,1.63-5.039,1.055L12.195,22.875c1.82.406,3.505.794,5.2,1.146a1.133,1.133,0,0,0,.687-.166q8.91-4.814,17.8-9.671c.341-.187.766-.859.665-1.078a2.089,2.089,0,0,0-1.156-.94,1.841,1.841,0,0,0-1.194.247c-2.079.994-4.14,2.025-6.275,3.077L26.87,13.528M0,1.555a4.334,4.334,0,0,1,.8-.01q6.607,1.13,13.209,2.284a2.153,2.153,0,0,1,2.046,1.98c.055.236.429.6.593.573a7.076,7.076,0,0,0,2.3-.658A38.883,38.883,0,0,1,32.517.581c10.227-1.693,19.762.368,28.688,5.5,1.294.745,2.586,1.532,2.8,3.249.437,3.55-2.4,5.829-5.4,4.618-.786-.317-1.513-.781-2.295-1.11a29.6,29.6,0,0,0-16.917-2.327c-.475.084-.937.234-1.4.351,0,.114-.022.184,0,.221,1.675,2.493,1.4,4.085-1.2,5.519-6.019,3.311-12.086,6.533-18.151,9.759a2.139,2.139,0,0,1-1.3.135c-1.612-.3-3.211-.667-4.812-1.023A.875.875,0,0,0,11.4,25.9a2.148,2.148,0,0,1-2.589.755C6.059,25.9,3.3,25.172.539,24.44A3.7,3.7,0,0,0,0,24.376V22.55c.177-.5.481-.557.981-.413,2.161.624,4.334,1.2,6.5,1.8.689.188,1.38.37,2.128.569L13.649,5.941,0,3.745Z"/>
            </g>
            <g id="Group_5216" data-name="Group 5216" transform="translate(32.1 67.986)">
              <path id="Path_4662" data-name="Path 4662" class="cls-7" d="M37.063,12.912c-.244.15-.391.255-.551.335-2.5,1.255-5,2.522-7.508,3.753a18.225,18.225,0,0,1-6.219,1.68A33.242,33.242,0,0,1,7.009,16.1c-.846-.334-1.648-.789-2.509-1.073a1.506,1.506,0,0,0-2.089.738,1.75,1.75,0,0,0,.667,2.43,40.915,40.915,0,0,0,12.452,5.286,36.164,36.164,0,0,0,27.248-3.644c1.8-1.017,3.525-2.227,5.789-1.5C49.6,13.6,50.6,8.962,51.621,4.332c.1-.478-.082-.655-.522-.748-1.429-.3-2.848-.647-4.281-.924a1.683,1.683,0,0,0-1.039.145Q36.9,7.584,28.061,12.428c-.343.189-.778.85-.679,1.066a2.012,2.012,0,0,0,1.144.957,2.045,2.045,0,0,0,1.278-.286c2.055-.976,4.091-1.99,6.207-3.026l1.052,1.773m26.5,12.306c-3.027-.5-6.053-1.016-9.083-1.5-1.47-.237-2.948-.431-4.423-.636a2.019,2.019,0,0,1-1.986-1.893c-.06-.546-.342-.742-.743-.678a5.8,5.8,0,0,0-1.974.554C30.99,29.4,16.727,28.544,2.523,20.645-.432,19-.294,16.78.457,14.883a3.741,3.741,0,0,1,4.657-2.191,8.384,8.384,0,0,1,1.6.641,29.494,29.494,0,0,0,16.969,3.1,18.936,18.936,0,0,0,1.964-.4,3.754,3.754,0,0,0,.558-.23,3.783,3.783,0,0,1-1.1-3.094,2.666,2.666,0,0,1,1.332-2.057c2.325-1.323,4.618-2.7,6.973-3.971C37.276,4.611,41.175,2.618,45.044.569A2.481,2.481,0,0,1,46.95.3c1.5.381,3.028.655,4.541.99a.936.936,0,0,0,1.2-.448c.585-.965,1.535-.954,2.512-.691q4.18,1.125,8.36,2.245V4.77L54.429,2.251l-4.17,18.64c2.469.355,4.836.69,7.2,1.037,2.036.3,4.071.611,6.106.917Z"/>
            </g>
            <g id="Group_5217" data-name="Group 5217" transform="translate(0 3.745)">
              <path id="Path_4663" data-name="Path 4663" class="cls-8" d="M10.576,4.6l-2.2-.486-.5,2.206,2.224.46.469-2.18M0,0,13.649,2.2,9.613,20.757c-.748-.2-1.439-.381-2.128-.569-2.17-.593-4.344-1.171-6.5-1.8-.5-.144-.8-.084-.981.413Z"/>
            </g>
            <g id="Group_5218" data-name="Group 5218" transform="translate(82.359 70.237)">
              <path id="Path_4664" data-name="Path 4664" class="cls-8" d="M5.283,16.591l.5-2.212L3.56,13.936l-.47,2.178,2.194.478m8.024,4c-2.035-.306-4.07-.619-6.106-.917-2.365-.347-4.732-.682-7.2-1.037L4.17,0l9.137,2.519Z"/>
            </g>
            <g id="Group_5219" data-name="Group 5219" transform="translate(29.286 38.39)">
              <path id="Path_4665" data-name="Path 4665" class="cls-7" d="M19.943,8.061c-.4-.633-.7-1.122-1.008-1.607a8.8,8.8,0,0,0-9.763-3.8,9.017,9.017,0,0,0-6.731,8.257,14.86,14.86,0,0,0,2.042,8.028c3.579,6.361,9.031,10.83,15.045,14.707a1,1,0,0,0,.884-.03A48.264,48.264,0,0,0,33.26,22.252,18.391,18.391,0,0,0,37.445,11.93,9,9,0,0,0,20.679,6.84c-.219.359-.435.721-.736,1.222m-.212-4.088a35,35,0,0,1,2.943-2.2,10.633,10.633,0,0,1,11.9.09,11,11,0,0,1,5.241,11.073c-.541,5.237-3.244,9.421-6.642,13.217a53.113,53.113,0,0,1-12.219,9.9,1.355,1.355,0,0,1-1.594.1c-6-3.713-11.436-8.055-15.511-13.9A19.953,19.953,0,0,1,.031,12.226,11.334,11.334,0,0,1,19.168,3.221a5.134,5.134,0,0,1,.564.752"/>
            </g>
            <g id="Group_5220" data-name="Group 5220" transform="translate(12.195 2.11)">
              <path id="Path_4666" data-name="Path 4666" class="cls-8" d="M14.675,11.418,15.72,13.38C17.856,12.328,19.917,11.3,22,10.3a1.841,1.841,0,0,1,1.194-.247,2.089,2.089,0,0,1,1.156.94c.1.218-.324.89-.665,1.078q-8.875,4.877-17.8,9.671a1.133,1.133,0,0,1-.687.166c-1.692-.352-3.377-.739-5.2-1.146L3.164,6.321C5.076,6.9,6.646,6.187,8.2,5.266,18.328-.729,28.959-1.44,40,2.292a39.768,39.768,0,0,1,8.617,4.134,1.724,1.724,0,0,1,.719,2.414,1.532,1.532,0,0,1-2.148.78c-.914-.32-1.768-.8-2.672-1.155A33.236,33.236,0,0,0,28.9,5.98a19.909,19.909,0,0,0-6.8,1.965c-2.127,1.048-4.3,2-6.457,2.992-.3.138-.589.29-.972.481"/>
            </g>
            <g id="Group_5221" data-name="Group 5221" transform="translate(34.279 70.62)">
              <path id="Path_4667" data-name="Path 4667" class="cls-8" d="M34.885,10.278,33.833,8.5c-2.116,1.036-4.152,2.05-6.207,3.026a2.045,2.045,0,0,1-1.278.286A2.012,2.012,0,0,1,25.2,10.86c-.1-.216.336-.877.679-1.066Q34.717,4.938,43.6.171A1.683,1.683,0,0,1,44.64.027c1.433.277,2.852.624,4.281.924.44.092.627.27.522.748-1.017,4.63-2.022,9.263-3.055,14.011-2.264-.73-3.984.48-5.789,1.5A36.164,36.164,0,0,1,13.351,20.85,40.915,40.915,0,0,1,.9,15.564a1.75,1.75,0,0,1-.667-2.43A1.506,1.506,0,0,1,2.321,12.4c.86.284,1.663.739,2.509,1.073a33.242,33.242,0,0,0,15.777,2.576,18.225,18.225,0,0,0,6.219-1.68c2.513-1.231,5.007-2.5,7.508-3.753.16-.08.307-.185.551-.335"/>
            </g>
            <g id="Group_5222" data-name="Group 5222" transform="translate(7.883 7.863)">
              <path id="Path_4668" data-name="Path 4668" class="cls-7" d="M2.693.486l-.469,2.18L0,2.206.5,0l2.2.486"/>
            </g>
            <g id="Group_5223" data-name="Group 5223" transform="translate(85.449 84.173)">
              <path id="Path_4669" data-name="Path 4669" class="cls-7" d="M2.194,2.655,0,2.178.47,0,2.695.443l-.5,2.212"/>
            </g>
            <g id="Group_5224" data-name="Group 5224" transform="translate(31.715 40.741)">
              <path id="Path_4670" data-name="Path 4670" class="cls-8" d="M17.514,5.711c.3-.5.516-.862.736-1.222A9,9,0,0,1,35.016,9.58,18.391,18.391,0,0,1,30.831,19.9,48.264,48.264,0,0,1,17.984,31.268a1,1,0,0,1-.884.03C11.085,27.421,5.634,22.951,2.054,16.591A14.86,14.86,0,0,1,.013,8.563,9.017,9.017,0,0,1,6.743.306a8.8,8.8,0,0,1,9.763,3.8c.309.485.611.974,1.008,1.607"/>
            </g>
            <g id="Group_5225" data-name="Group 5225" transform="translate(38.268 23.673)">
              <path id="Path_4671" data-name="Path 4671" class="cls-7" d="M.53,2.26C.268,1.539-.05,1.1.007.717A.786.786,0,0,1,1.18.107a1.341,1.341,0,0,1,.563,1.125c-.065.327-.621.555-1.214,1.027"/>
            </g>
            <g id="Group_5226" data-name="Group 5226" transform="translate(30.751 26.974)">
              <path id="Path_4672" data-name="Path 4672" class="cls-7" d="M1.9,1.372c-.4.164-.87.538-1.183.436A1.333,1.333,0,0,1,0,.775.776.776,0,0,1,1.11.069c.361.146.594.607.884.926L1.9,1.372"/>
            </g>
            <g id="Group_5227" data-name="Group 5227" transform="translate(46.452 22.71)">
              <path id="Path_4673" data-name="Path 4673" class="cls-7" d="M.314,1.8C.2,1.393-.1.9.034.6A1.331,1.331,0,0,1,1.113,0a.748.748,0,0,1,.592,1.153c-.176.339-.644.527-.982.782L.314,1.8"/>
            </g>
            <g id="Group_5228" data-name="Group 5228" transform="translate(34.345 25.155)">
              <path id="Path_4674" data-name="Path 4674" class="cls-7" d="M1.948,1.29c-.4.162-.8.482-1.183.449A.758.758,0,0,1,.092.625,1.34,1.34,0,0,1,1.168,0c.322.04.583.57.872.884l-.092.4"/>
            </g>
            <g id="Group_5229" data-name="Group 5229" transform="translate(42.246 22.953)">
              <path id="Path_4675" data-name="Path 4675" class="cls-7" d="M1.965,1.3c-.4.158-.816.469-1.2.438A.77.77,0,0,1,.088.612,1.34,1.34,0,0,1,1.188,0c.326.045.582.586.868.909L1.965,1.3"/>
            </g>
            <g id="Group_5230" data-name="Group 5230" transform="translate(24.429 32.192)">
              <path id="Path_4676" data-name="Path 4676" class="cls-7" d="M.6,2.185C.305,1.506-.041,1.093,0,.727A.778.778,0,0,1,1.167.1a1.43,1.43,0,0,1,.56,1.145c-.017.266-.569.5-1.127.936"/>
            </g>
            <g id="Group_5231" data-name="Group 5231" transform="translate(27.419 29.364)">
              <path id="Path_4677" data-name="Path 4677" class="cls-7" d="M1.831,1.477c-.408.12-.9.437-1.2.306A1.339,1.339,0,0,1,0,.705.767.767,0,0,1,1.16.1c.343.167.537.641.8.978l-.126.4"/>
            </g>
            <g id="Group_5232" data-name="Group 5232" transform="translate(21.988 35.537)">
              <path id="Path_4678" data-name="Path 4678" class="cls-7" d="M2.063,1.083c-.7.25-1.129.541-1.512.49C.319,1.542-.078.841.013.688A1.427,1.427,0,0,1,1.029,0c.284.009.55.547,1.034,1.082"/>
            </g>
            <g id="Group_5233" data-name="Group 5233" transform="translate(49.471 76.802)">
              <path id="Path_4679" data-name="Path 4679" class="cls-7" d="M1.223,0c.262.721.58,1.159.524,1.543a.786.786,0,0,1-1.174.61A1.341,1.341,0,0,1,.009,1.028C.074.7.631.472,1.223,0"/>
            </g>
            <g id="Group_5234" data-name="Group 5234" transform="translate(56.747 73.936)">
              <path id="Path_4680" data-name="Path 4680" class="cls-7" d="M.091.453c.4-.164.87-.538,1.183-.436a1.333,1.333,0,0,1,.72,1.032.776.776,0,0,1-1.11.706C.523,1.61.29,1.149,0,.83L.091.453"/>
            </g>
            <g id="Group_5235" data-name="Group 5235" transform="translate(41.226 78.087)">
              <path id="Path_4681" data-name="Path 4681" class="cls-7" d="M1.5.137c.111.408.415.9.28,1.2a1.331,1.331,0,0,1-1.079.6A.748.748,0,0,1,.109.782C.285.443.754.255,1.091,0L1.5.137"/>
            </g>
            <g id="Group_5236" data-name="Group 5236" transform="translate(53.108 75.838)">
              <path id="Path_4682" data-name="Path 4682" class="cls-7" d="M.092.452C.488.289.9-.03,1.275,0a.758.758,0,0,1,.673,1.115,1.34,1.34,0,0,1-1.076.621C.55,1.7.289,1.169,0,.855l.092-.4"/>
            </g>
            <g id="Group_5237" data-name="Group 5237" transform="translate(45.19 78.042)">
              <path id="Path_4683" data-name="Path 4683" class="cls-7" d="M.092.44C.494.283.908-.029,1.294,0a.77.77,0,0,1,.675,1.126,1.34,1.34,0,0,1-1.1.607C.543,1.689.287,1.149,0,.826L.092.44"/>
            </g>
            <g id="Group_5238" data-name="Group 5238" transform="translate(63.335 68.358)">
              <path id="Path_4684" data-name="Path 4684" class="cls-7" d="M1.129,0c.3.678.641,1.092.6,1.458a.778.778,0,0,1-1.163.623A1.43,1.43,0,0,1,0,.936C.019.67.57.44,1.129,0"/>
            </g>
            <g id="Group_5239" data-name="Group 5239" transform="translate(60.117 71.556)">
              <path id="Path_4685" data-name="Path 4685" class="cls-7" d="M.126.337c.408-.12.9-.437,1.2-.306a1.339,1.339,0,0,1,.629,1.078A.767.767,0,0,1,.8,1.717C.454,1.55.26,1.076,0,.739l.126-.4"/>
            </g>
            <g id="Group_5240" data-name="Group 5240" transform="translate(65.441 65.619)">
              <path id="Path_4686" data-name="Path 4686" class="cls-7" d="M0,.5C.7.245,1.129-.045,1.512.006c.232.031.629.732.537.885a1.427,1.427,0,0,1-1.015.688C.749,1.569.484,1.032,0,.5"/>
            </g>
          </g>
        </g>
        <g id="Ellipse_216" data-name="Ellipse 216" class="cls-9" transform="translate(895.783 332.783)">
          <circle class="cls-10" cx="67.217" cy="67.217" r="67.217"/>
          <circle class="cls-1" cx="67.217" cy="67.217" r="66.217"/>
        </g>
      </g>
    </g>
  </g>
</svg>
